<?xml version='1.0' encoding='utf-8'?>
<svg xmlns="http://www.w3.org/2000/svg" width="320" height="260" viewBox="580 385 320 260" role="img" aria-labelledby="title desc"><title id="title">Rolling acorn animation</title><desc id="desc">A single acorn rolling back and forth with a shadow beneath it.</desc><g id="acorn-roll-translate">
    <animateTransform attributeName="transform" attributeType="XML" type="translate" dur="4s" repeatCount="indefinite" calcMode="spline" keyTimes="0;0.5;1" keySplines="0.42 0 0.58 1;0.42 0 0.58 1" values="0 0;72 -2;0 0" />
    <ellipse cx="696" cy="602" rx="72" ry="8" fill="#5B261B" opacity="0.10">
      <animate attributeName="rx" dur="4s" repeatCount="indefinite" values="70;78;70" keyTimes="0;0.5;1" />
      <animate attributeName="opacity" dur="4s" repeatCount="indefinite" values="0.08;0.12;0.08" keyTimes="0;0.5;1" />
    </ellipse>
    <g id="acorn-roll-rotate">
      <animateTransform attributeName="transform" attributeType="XML" type="rotate" dur="4s" repeatCount="indefinite" calcMode="spline" keyTimes="0;0.5;1" keySplines="0.42 0 0.58 1;0.42 0 0.58 1" values="0 697 516;360 697 516;720 697 516" />
      <g id="acorn-art">
        <path id="acorn-body-underfill" d="M646 450 C625 466 611 493 607 525 C601 571 627 601 670 607 C716 615 755 590 767 552 C778 516 759 484 734 463 C704 437 672 431 646 450 Z" fill="#C37229" />
        <path id="acorn-cap-underfill" d="M665 420 C700 409 742 416 770 439 C793 459 801 500 787 538 C782 550 769 553 755 545 C744 518 737 485 711 466 C692 452 670 445 653 449 C650 438 655 426 665 420 Z" fill="#5E270D" />
        <path id="acorn-stem-underfill" d="M764 436 C772 425 785 423 789 428 C793 434 788 441 785 445 C779 439 773 440 765 449 Z" fill="#5E270D" />
        <path d="M0 0 C4.96563921 4.16480663 9.64481223 8.49706631 14.21875 13.0859375 C14.88032104 13.74655182 15.54189209 14.40716614 16.22351074 15.08779907 C17.61296345 16.47657561 19.00117156 17.86659838 20.38818359 19.2578125 C22.49075281 21.36572929 24.59859604 23.468265 26.70703125 25.5703125 C28.0654248 26.9293671 29.42350798 28.288732 30.78125 29.6484375 C31.71124817 30.57539932 31.71124817 30.57539932 32.66003418 31.52108765 C36.41581895 35.29668568 39.96676183 39.19890204 43.44958496 43.22720337 C45.2042466 45.23354242 47.03431475 47.13429542 48.9375 49 C49.60523438 49.66 50.27296875 50.32 50.9609375 51 C51.63382813 51.66 52.30671875 52.32 53 53 C58.24631554 58.14581141 63.21849779 63.4192753 68 69 C72.85555202 74.50900949 77.829796 79.88646707 82.88623047 85.21069336 C88.9472757 91.5958624 94.84888174 97.97913085 100.30078125 104.8984375 C101.7797289 106.72757276 103.29989249 108.37835899 105 110 C101.73608748 121.08746161 93.85181637 129.79559774 86 138 C85.32582031 138.74894531 84.65164063 139.49789062 83.95703125 140.26953125 C73.18037885 151.81450033 59.74060189 158.82234651 45 164 C44.30455078 164.27521484 43.60910156 164.55042969 42.89257812 164.83398438 C34.52355656 167.82853607 25.90199906 167.52803643 17.125 167.625 C14.73670406 167.66163918 12.34856489 167.70229163 9.9604187 167.74765015 C8.48470362 167.77463027 7.00887394 167.79608625 5.5329895 167.81118774 C2.85309148 167.85234859 0.35951825 167.90849905 -2.24658203 168.57177734 C-5.32750102 169.32420451 -8.06781839 167.95859783 -11 167 C-8.10765685 166.17361624 -6.11257569 166 -3 166 C-3.96679688 165.69707031 -4.93359375 165.39414062 -5.9296875 165.08203125 C-17.76118736 161.29619515 -17.76118736 161.29619515 -23.1875 158.25 C-27.91756064 155.69020248 -32.20535781 155.40457013 -37.53125 155.3359375 C-38.3459375 155.22507812 -39.160625 155.11421875 -40 155 C-42.23024562 151.65463157 -42.18677462 150.58112986 -42.25 146.6875 C-42.58444043 141.69478218 -43.66089877 137.97809758 -45.75 133.4375 C-55.8277831 111.21282374 -56.89848619 89.1210232 -49 66 C-48.35781948 64.65470212 -47.69694759 63.31775805 -47 62 C-46.47486408 60.50861398 -45.97514171 59.00805847 -45.5 57.5 C-44.55992589 54.51628651 -43.64085707 51.67657536 -42 49 C-38.875 47.75 -38.875 47.75 -36 47 C-36 46.67 -36 46.34 -36 46 C-32.37 46 -28.74 46 -25 46 C-26 50 -26 50 -27 53 C-27.99 53.495 -27.99 53.495 -29 54 C-30.05651441 55.70916494 -30.05651441 55.70916494 -31 57.75 C-31.33 58.42546875 -31.66 59.1009375 -32 59.796875 C-34.05479451 64.32384415 -35.33021804 68.29839766 -36 73.25 C-36.76403292 78.58003916 -37.75718424 83.7624193 -39 89 C-38.34 89 -37.68 89 -37 89 C-36.85304688 88.22398437 -36.70609375 87.44796875 -36.5546875 86.6484375 C-31.77668617 63.63714373 -18.65314179 46.051221 -2 30 C-0.99777531 29.00222965 0.00313969 28.00312987 1 27 C0.2575 27.495 -0.485 27.99 -1.25 28.5 C-4 30 -4 30 -8 30 C-8 30.66 -8 31.32 -8 32 C-8.99 32 -9.98 32 -11 32 C-11.09796875 31.16855469 -11.1959375 30.33710938 -11.296875 29.48046875 C-11.44640625 28.39378906 -11.5959375 27.30710937 -11.75 26.1875 C-11.88921875 25.10855469 -12.0284375 24.02960938 -12.171875 22.91796875 C-13.15270138 19.46194373 -14.22253554 19.06051733 -17 17 C-17.47265625 14.54296875 -17.47265625 14.54296875 -17 12 C-13.07580724 6.91383848 -8.21761182 4.16580222 -2 3 C-2 2.34 -2 1.68 -2 1 C-1.34 0.67 -0.68 0.34 0 0 Z " fill="#C37229" transform="translate(663,438)" />
        <path d="M0 0 C4.96563921 4.16480663 9.64481223 8.49706631 14.21875 13.0859375 C14.88032104 13.74655182 15.54189209 14.40716614 16.22351074 15.08779907 C17.61296345 16.47657561 19.00117156 17.86659838 20.38818359 19.2578125 C22.49075281 21.36572929 24.59859604 23.468265 26.70703125 25.5703125 C28.0654248 26.9293671 29.42350798 28.288732 30.78125 29.6484375 C31.71124817 30.57539932 31.71124817 30.57539932 32.66003418 31.52108765 C36.41581895 35.29668568 39.96676183 39.19890204 43.44958496 43.22720337 C45.2042466 45.23354242 47.03431475 47.13429542 48.9375 49 C49.60523438 49.66 50.27296875 50.32 50.9609375 51 C51.63382813 51.66 52.30671875 52.32 53 53 C58.24631554 58.14581141 63.21849779 63.4192753 68 69 C72.85555202 74.50900949 77.829796 79.88646707 82.88623047 85.21069336 C88.9472757 91.5958624 94.84888174 97.97913085 100.30078125 104.8984375 C101.7797289 106.72757276 103.29989249 108.37835899 105 110 C101.73608748 121.08746161 93.85181637 129.79559774 86 138 C85.32582031 138.74894531 84.65164063 139.49789062 83.95703125 140.26953125 C73.18037885 151.81450033 59.74060189 158.82234651 45 164 C44.30455078 164.27521484 43.60910156 164.55042969 42.89257812 164.83398438 C34.52355656 167.82853607 25.90199906 167.52803643 17.125 167.625 C14.73670406 167.66163918 12.34856489 167.70229163 9.9604187 167.74765015 C8.48470362 167.77463027 7.00887394 167.79608625 5.5329895 167.81118774 C2.85309148 167.85234859 0.35951825 167.90849905 -2.24658203 168.57177734 C-5.32750102 169.32420451 -8.06781839 167.95859783 -11 167 C-8.10765685 166.17361624 -6.11257569 166 -3 166 C-3.96679688 165.69707031 -4.93359375 165.39414062 -5.9296875 165.08203125 C-17.76118736 161.29619515 -17.76118736 161.29619515 -23.1875 158.25 C-27.91756064 155.69020248 -32.20535781 155.40457013 -37.53125 155.3359375 C-38.3459375 155.22507812 -39.160625 155.11421875 -40 155 C-42.67927341 150.98108988 -42.15601248 148.75838077 -42 144 C-41.67 144.99 -41.34 145.98 -41 147 C-20.09236617 145.17986235 -2.25389793 139.82563768 16.16015625 129.515625 C18.73105296 128.14353707 21.27369796 127.02048737 24 126 C24 125.34 24 124.68 24 124 C25.53703057 122.79276536 27.13334569 121.66082023 28.75 120.5625 C39.82933596 112.68734217 51.07888289 102.8846319 58.4375 91.375 C59.2109375 90.199375 59.2109375 90.199375 60 89 C60.66 89 61.32 89 62 89 C63.52299523 86.06279492 64.80100302 83.0831351 66 80 C61.2909522 74.54359947 56.4562671 69.232183 51.5 64 C47.67185448 59.95874123 43.86752404 55.89925048 40.15625 51.75 C39.59744141 51.12609375 39.03863281 50.5021875 38.46289062 49.859375 C36.99146555 47.98915248 35.9825156 46.16105621 35 44 C34.34 44 33.68 44 33 44 C31.765625 42.77734375 31.765625 42.77734375 30.25 40.9375 C26.63228453 36.68270256 22.87420802 32.58026591 19.0625 28.5 C18.44850342 27.84241699 17.83450684 27.18483398 17.2019043 26.50732422 C13.46045458 22.51637786 9.6476482 18.61619122 5.75 14.77734375 C-2.0952381 6.80952381 -2.0952381 6.80952381 -4 3 C-3.34 3 -2.68 3 -2 3 C-2 2.34 -2 1.68 -2 1 C-1.34 0.67 -0.68 0.34 0 0 Z " fill="#A25520" transform="translate(663,438)" />
        <path d="M0 0 C2.05078125 0.03255208 4.1015625 0.06510417 6.15234375 0.09765625 C6.15234375 0.42765625 6.15234375 0.75765625 6.15234375 1.09765625 C3.84234375 1.09765625 1.53234375 1.09765625 -0.84765625 1.09765625 C-0.84765625 5.38765625 -0.84765625 9.67765625 -0.84765625 14.09765625 C1.13234375 13.76765625 3.11234375 13.43765625 5.15234375 13.09765625 C7.10974568 13.03377237 9.06904522 13.01127456 11.02734375 13.03515625 C11.99414062 13.04417969 12.9609375 13.05320312 13.95703125 13.0625 C14.68148437 13.07410156 15.4059375 13.08570313 16.15234375 13.09765625 C16.15234375 11.11765625 16.15234375 9.13765625 16.15234375 7.09765625 C16.81234375 7.09765625 17.47234375 7.09765625 18.15234375 7.09765625 C18.15234375 5.77765625 18.15234375 4.45765625 18.15234375 3.09765625 C20.46234375 3.42765625 22.77234375 3.75765625 25.15234375 4.09765625 C25.48234375 3.43765625 25.81234375 2.77765625 26.15234375 2.09765625 C34.75964717 6.46367972 42.78254706 10.78888087 50.15234375 17.09765625 C50.91804687 17.68546875 51.68375 18.27328125 52.47265625 18.87890625 C58.03114408 23.29470843 58.03114408 23.29470843 58.65234375 27.41015625 C58.48734375 28.29703125 58.32234375 29.18390625 58.15234375 30.09765625 C58.15234375 32.98626525 58.426508 35.84325041 58.65234375 38.72265625 C58.81734375 40.82640625 58.98234375 42.93015625 59.15234375 45.09765625 C59.48234375 40.80765625 59.81234375 36.51765625 60.15234375 32.09765625 C66.40807327 35.22552101 71.09476269 40.41704277 75.15234375 46.09765625 C75.15234375 46.75765625 75.15234375 47.41765625 75.15234375 48.09765625 C76.63734375 48.59265625 76.63734375 48.59265625 78.15234375 49.09765625 C78.90008792 50.6951097 79.63172468 52.30239329 80.2734375 53.9453125 C81.259168 56.35925697 82.40502942 58.65013031 83.58984375 60.97265625 C84.44504687 62.68047096 85.29922402 64.38879985 86.15234375 66.09765625 C86.75175781 67.28294922 86.75175781 67.28294922 87.36328125 68.4921875 C89.67808089 73.3105825 90.60747506 76.74986337 90.15234375 82.09765625 C88.59268157 82.60643925 87.02945134 83.10429094 85.46484375 83.59765625 C84.59472656 83.87609375 83.72460938 84.15453125 82.828125 84.44140625 C80.15234375 85.09765625 80.15234375 85.09765625 77.6328125 85.00390625 C74.4280177 85.12503235 72.85130309 86.4118321 70.15234375 88.09765625 C67.14453125 89.046875 67.14453125 89.046875 64.02734375 89.78515625 C62.99351562 90.03652344 61.9596875 90.28789062 60.89453125 90.546875 C58.15234375 91.09765625 58.15234375 91.09765625 55.15234375 91.09765625 C55.15234375 90.43765625 55.15234375 89.77765625 55.15234375 89.09765625 C54.16234375 89.42765625 53.17234375 89.75765625 52.15234375 90.09765625 C51.23610685 92.39929592 51.23610685 92.39929592 50.65234375 95.09765625 C49.99609375 97.84765625 49.99609375 97.84765625 49.15234375 100.09765625 C48.16234375 100.42765625 47.17234375 100.75765625 46.15234375 101.09765625 C46.06984375 100.47890625 45.98734375 99.86015625 45.90234375 99.22265625 C45.37414681 96.93884924 45.37414681 96.93884924 43.296875 96.1796875 C40.9009179 94.9707984 39.76413202 93.7362737 38.08984375 91.66015625 C35.40515612 88.36304651 32.54249831 85.46966409 29.46484375 82.53515625 C27.15234375 80.09765625 27.15234375 80.09765625 27.15234375 78.09765625 C26.49234375 78.09765625 25.83234375 78.09765625 25.15234375 78.09765625 C23.8203125 76.5234375 23.8203125 76.5234375 22.33984375 74.41015625 C19.08930136 69.93075027 15.78715357 66.18752947 11.15234375 63.09765625 C11.15234375 62.43765625 11.15234375 61.77765625 11.15234375 61.09765625 C10.49234375 61.09765625 9.83234375 61.09765625 9.15234375 61.09765625 C9.15234375 60.43765625 9.15234375 59.77765625 9.15234375 59.09765625 C7.66734375 58.60265625 7.66734375 58.60265625 6.15234375 58.09765625 C4.5390625 56.49609375 4.5390625 56.49609375 2.83984375 54.47265625 C2.23398437 53.75464844 1.628125 53.03664063 1.00390625 52.296875 C0.39289062 51.57113281 -0.218125 50.84539062 -0.84765625 50.09765625 C-1.43804688 49.44410156 -2.0284375 48.79054688 -2.63671875 48.1171875 C-3.45269531 47.21033203 -3.45269531 47.21033203 -4.28515625 46.28515625 C-5.02572266 45.47111328 -5.02572266 45.47111328 -5.78125 44.640625 C-6.84765625 43.09765625 -6.84765625 43.09765625 -6.84765625 40.09765625 C-4.66379207 39.41917417 -2.47535541 38.75540115 -0.28515625 38.09765625 C0.93300781 37.72640625 2.15117188 37.35515625 3.40625 36.97265625 C7.13157724 36.10250682 10.34300324 35.94077221 14.15234375 36.09765625 C14.48234375 40.05765625 14.81234375 44.01765625 15.15234375 48.09765625 C15.81234375 45.12765625 16.47234375 42.15765625 17.15234375 39.09765625 C16.49234375 39.75765625 15.83234375 40.41765625 15.15234375 41.09765625 C15.15234375 39.11765625 15.15234375 37.13765625 15.15234375 35.09765625 C14.34796875 35.11828125 13.54359375 35.13890625 12.71484375 35.16015625 C10.15234375 35.09765625 10.15234375 35.09765625 9.15234375 34.09765625 C7.18132927 34.58233194 5.21068712 35.07174659 3.2578125 35.625 C1.15234375 36.09765625 1.15234375 36.09765625 -2.84765625 36.09765625 C-3.34265625 34.61265625 -3.34265625 34.61265625 -3.84765625 33.09765625 C-4.83765625 33.75765625 -5.82765625 34.41765625 -6.84765625 35.09765625 C-6.51765625 31.46765625 -6.18765625 27.83765625 -5.84765625 24.09765625 C-5.18765625 24.09765625 -4.52765625 24.09765625 -3.84765625 24.09765625 C-3.84765625 22.11765625 -3.84765625 20.13765625 -3.84765625 18.09765625 C-5.16765625 17.76765625 -6.48765625 17.43765625 -7.84765625 17.09765625 C-6.52765625 16.76765625 -5.20765625 16.43765625 -3.84765625 16.09765625 C-3.78707031 15.02644531 -3.72648438 13.95523437 -3.6640625 12.8515625 C-3.57967088 11.45441234 -3.49502219 10.05727768 -3.41015625 8.66015625 C-3.35118164 7.59958008 -3.35118164 7.59958008 -3.29101562 6.51757812 C-2.895134 0.15301977 -2.895134 0.15301977 0 0 Z " fill="#5E270D" transform="translate(695.84765625,415.90234375)" />
        <path d="M0 0 C2.375 2.25 2.375 2.25 4 5 C4.4125 5.61875 4.825 6.2375 5.25 6.875 C6.3411416 9.96656786 6.1803894 12.75299079 6 16 C5.67 16.66 5.34 17.32 5 18 C2.61329139 18.34818567 0.27403523 18.60349206 -2.125 18.8125 C-8.39776426 19.47497504 -12.33361248 20.67505547 -17 25 C-16.43825717 29.24427918 -13.86652126 32.18024702 -11.375 35.5 C3.66330845 56.11820628 12.52663028 79.26627966 8.69091797 105.08007812 C6.95992611 113.56039073 3.23697634 120.43201992 -3.375 126 C-7.06201021 127.40457532 -10.0677229 127.19994629 -14 127 C-14.37511719 128.29744141 -14.37511719 128.29744141 -14.7578125 129.62109375 C-20.00488916 143.89380228 -33.72585206 157.47050737 -46 166 C-46.84304688 166.63164063 -47.68609375 167.26328125 -48.5546875 167.9140625 C-69.00363314 182.5851897 -92.19267946 186.75307415 -116.89453125 184.671875 C-120 184 -120 184 -122 181 C-121.00371582 181.00112793 -120.00743164 181.00225586 -118.98095703 181.00341797 C-92.78702472 181.37960484 -92.78702472 181.37960484 -68 174 C-66.7508363 173.45251497 -65.50083449 172.90693822 -64.25 172.36328125 C-45.44256349 163.66889519 -25.13644188 146.63447783 -17.73046875 126.55859375 C-17.48941406 125.71425781 -17.24835938 124.86992188 -17 124 C-17.73605469 123.20335937 -18.47210937 122.40671875 -19.23046875 121.5859375 C-20.21621999 120.5156933 -21.20189288 119.44537693 -22.1875 118.375 C-22.67025391 117.85292969 -23.15300781 117.33085938 -23.65039062 116.79296875 C-33 106.62762164 -33 106.62762164 -33 104 C-29.75791433 104.35049575 -28.38472296 104.56221181 -26.1875 107.0625 C-25.5996875 108.0215625 -25.5996875 108.0215625 -25 109 C-24.34 106.69 -23.68 104.38 -23 102 C-24.98 102 -26.96 102 -29 102 C-28.505 100.515 -28.505 100.515 -28 99 C-26.741875 98.79375 -25.48375 98.5875 -24.1875 98.375 C-21.21989759 97.77828282 -20.29080549 97.43580768 -18.58203125 94.875 C-17.60018639 92.60647758 -16.73764685 90.35852875 -16 88 C-15.34 88 -14.68 88 -14 88 C-13.979375 86.906875 -13.95875 85.81375 -13.9375 84.6875 C-13.4734375 82.8621875 -13.4734375 82.8621875 -13 81 C-9.5625 79.25 -9.5625 79.25 -6 78 C-5.01 76.515 -5.01 76.515 -4 75 C-0.875 74.3125 -0.875 74.3125 2 74 C0.19015995 64.12814517 -3.24581793 54.99970577 -8.984375 46.71875 C-10 45 -10 45 -10.515625 42.9140625 C-11.1386567 40.4520824 -12.51640308 39.32607432 -14.3359375 37.62890625 C-17.37311899 34.65589057 -20.11016529 31.39849787 -22.9140625 28.20703125 C-24.99164059 25.84402132 -24.99164059 25.84402132 -28 24 C-28 29.28 -28 34.56 -28 40 C-30.34770643 36.47844036 -30.37669614 34.49228157 -30.625 30.3125 C-30.73714844 28.54326172 -30.73714844 28.54326172 -30.8515625 26.73828125 C-30.90054688 25.83464844 -30.94953125 24.93101562 -31 24 C-32.65 23.67 -34.3 23.34 -36 23 C-36 22.67 -36 22.34 -36 22 C-34.02 22 -32.04 22 -30 22 C-30.33 20.35 -30.66 18.7 -31 17 C-29.35 17.33 -27.7 17.66 -26 18 C-25.75636719 17.26910156 -25.51273438 16.53820312 -25.26171875 15.78515625 C-20.94000391 6.2452718 -10.56880145 -1.55933136 0 0 Z " fill="#4F1E0C" transform="translate(784,424)" />
        <path d="M0 0 C5.94 0 11.88 0 18 0 C18.33 4.29 18.66 8.58 19 13 C19.33 8.71 19.66 4.42 20 0 C26.25572952 3.12786476 30.94241894 8.31938652 35 14 C35 14.66 35 15.32 35 16 C35.99 16.33 36.98 16.66 38 17 C38.74774417 18.59745345 39.47938093 20.20473704 40.12109375 21.84765625 C41.10682425 24.26160072 42.25268567 26.55247406 43.4375 28.875 C44.29270312 30.58281471 45.14688027 32.2911436 46 34 C46.39960937 34.79019531 46.79921875 35.58039063 47.2109375 36.39453125 C49.52573714 41.21292625 50.45513131 44.65220712 50 50 C48.39743892 50.50512244 46.79288208 51.00391627 45.1875 51.5 C44.29417969 51.7784375 43.40085937 52.056875 42.48046875 52.34375 C40 53 40 53 37 53 C37.05985162 50.37251369 37.14676224 47.75083005 37.25 45.125 C37.26417969 44.37863281 37.27835938 43.63226563 37.29296875 42.86328125 C37.390625 40.6953125 37.390625 40.6953125 38 37 C40.046875 35.4921875 40.046875 35.4921875 42 35 C40.10820797 34.3185177 40.10820797 34.3185177 38 34 C37.34 34.66 36.68 35.32 36 36 C30.32580408 37.18212415 24.78263559 37.07921419 19 37 C19 32.05 19 27.1 19 22 C18.690625 24.26875 18.38125 26.5375 18.0625 28.875 C17.125 35.75 17.125 35.75 16 38 C13.38402535 38.64438698 10.83685637 39.17069217 8.1875 39.625 C7.09985352 39.82609375 7.09985352 39.82609375 5.99023438 40.03125 C2.58759906 40.64142065 -0.5321696 41 -4 41 C-3.54240047 34.4491015 -2.7899856 28.3246158 -1 22 C6.92 20.515 6.92 20.515 15 19 C10.05 19 5.1 19 0 19 C0 12.73 0 6.46 0 0 Z " fill="#5C2308" transform="translate(736,448)" />
        <path d="M0 0 C3.06487934 1.4860021 4.92352334 3.37211439 7.0625 6 C6.79300866 9.57961629 5.19201297 11.16752313 2.59765625 13.50390625 C1.88488525 14.15625244 1.17211426 14.80859863 0.43774414 15.48071289 C-0.32546143 16.16770264 -1.08866699 16.85469238 -1.875 17.5625 C-23.70950349 37.72283584 -40.988837 61.77754088 -44.9375 92 C-45.2675 92 -45.5975 92 -45.9375 92 C-46.83553077 62.66432823 -37.2961502 36.15653287 -17.27734375 14.4609375 C-3.52797619 0 -3.52797619 0 0 0 Z " fill="#E29957" transform="translate(671.9375,465)" />
        <path d="M0 0 C0.99 0 1.98 0 3 0 C2.8310711 8.66144562 1.49496196 16.46299308 -3 24 C-7.64922317 28.13581202 -10.75698636 30.16428983 -17 30 C-17.66 30.33 -18.32 30.66 -19 31 C-21.64 27.7 -24.28 24.4 -27 21 C-26.34 20.67 -25.68 20.34 -25 20 C-25.19722656 19.28070312 -25.39445313 18.56140625 -25.59765625 17.8203125 C-26.20236191 13.58150192 -25.01569229 10.98196643 -23.06640625 7.25 C-18.95520595 2.77353237 -12.79653868 2.55544228 -7 2 C-6.01 2 -5.02 2 -4 2 C-4.51753043 7.30468687 -6.12747336 10.60672396 -9 15 C-9.99 15.66 -10.98 16.32 -12 17 C-12.33 17.99 -12.66 18.98 -13 20 C-11.05000871 19.80528889 -11.05000871 19.80528889 -9 19 C-7.95777992 17.20374581 -7.95777992 17.20374581 -7 15 C-6.5978125 14.20722656 -6.195625 13.41445313 -5.78125 12.59765625 C-5.3584375 11.76105469 -4.935625 10.92445313 -4.5 10.0625 C-4.0771875 9.22847656 -3.654375 8.39445313 -3.21875 7.53515625 C-2.02861707 5.05952718 -0.98976252 2.56146874 0 0 Z " fill="#673214" transform="translate(787,519)" />
        <path d="M0 0 C0 6.27 0 12.54 0 19 C-14.85714286 21.28571429 -14.85714286 21.28571429 -22 21 C-21.68839539 18.79154015 -21.37567654 16.58323749 -21.0625 14.375 C-20.88847656 13.14523437 -20.71445312 11.91546875 -20.53515625 10.6484375 C-20.06225699 7.42443816 -19.54848998 4.21187824 -19 1 C-12.60627583 0.03490956 -6.46788758 -0.08084859 0 0 Z " fill="#86481F" transform="translate(733,449)" />
        <path d="M0 0 C0.33 0 0.66 0 1 0 C1 1.65 1 3.3 1 5 C1.61875 5.185625 2.2375 5.37125 2.875 5.5625 C6.12720187 7.76251891 6.2489606 10.24480299 7 14 C7.125 17.4375 7.125 17.4375 7 20 C7.99 20 8.98 20 10 20 C10 19.34 10 18.68 10 18 C10.7425 17.71125 11.485 17.4225 12.25 17.125 C14.56739797 16.17697356 16.77917115 15.15154089 19 14 C19 17 19 17 17.09375 18.9453125 C16.2378125 19.66460937 15.381875 20.38390625 14.5 21.125 C-2.65425572 36.15906681 -13.32286952 54.99436092 -19 77 C-19.66 77 -20.32 77 -21 77 C-20.79010388 74.93602151 -20.57276768 72.87264891 -20.328125 70.8125 C-20.10243779 68.87803818 -19.9061452 66.93999285 -19.734375 65 C-18.70319923 55.85391929 -15.43510168 48.90965995 -11 41 C-10.34 41 -9.68 41 -9 41 C-8.855625 40.401875 -8.71125 39.80375 -8.5625 39.1875 C-8.1127561 37.43849596 -7.57107659 35.71322977 -7 34 C-10.63 34 -14.26 34 -18 34 C-17.67 33.34 -17.34 32.68 -17 32 C-13.83760318 31.70187429 -10.72027544 31.58411728 -7.546875 31.52148438 C-3.56738813 31.38851879 -3.56738813 31.38851879 -0.09375 29.62890625 C1.3110053 27.53682424 2.13113101 25.35835868 3 23 C3.33 22.67 3.66 22.34 4 22 C4.3191741 15.72290929 4.27190142 10.53918394 -0.125 5.625 C-0.74375 5.08875 -1.3625 4.5525 -2 4 C-1.34 2.68 -0.68 1.36 0 0 Z " fill="#C2753C" transform="translate(645,450)" />
        <path d="M0 0 C0.02690844 2.62506802 0.04679404 5.24986173 0.0625 7.875 C0.07087891 8.62136719 0.07925781 9.36773437 0.08789062 10.13671875 C0.11328125 15.7734375 0.11328125 15.7734375 -1 18 C-3.61597465 18.64438698 -6.16314363 19.17069217 -8.8125 19.625 C-9.53759766 19.7590625 -10.26269531 19.893125 -11.00976562 20.03125 C-14.41240094 20.64142065 -17.5321696 21 -21 21 C-20.88353525 19.33271516 -20.75630239 17.666182 -20.625 16 C-20.55539062 15.071875 -20.48578125 14.14375 -20.4140625 13.1875 C-19.91451708 9.34194278 -18.99349912 5.74783407 -18 2 C-15.18758118 1.66596934 -12.37507128 1.33274225 -9.5625 1 C-8.76005859 0.90460938 -7.95761719 0.80921875 -7.13085938 0.7109375 C-1.11328125 0 -1.11328125 0 0 0 Z " fill="#894820" transform="translate(753,468)" />
        <path d="M0 0 C0.02698422 2.43757413 0.04683099 4.87484915 0.0625 7.3125 C0.07087891 8.00279297 0.07925781 8.69308594 0.08789062 9.40429688 C0.10307906 12.5483025 0.00193327 14.99420019 -1 18 C-4.01953125 18.94921875 -4.01953125 18.94921875 -7.8125 19.6875 C-9.05644531 19.93886719 -10.30039062 20.19023437 -11.58203125 20.44921875 C-15 21 -15 21 -19 21 C-19.0809313 18.39521117 -19.14045434 15.79293347 -19.1875 13.1875 C-19.22520508 12.08051758 -19.22520508 12.08051758 -19.26367188 10.95117188 C-19.33713463 5.53941541 -19.33713463 5.53941541 -17.7890625 3.0625 C-15.58708459 1.75477513 -13.70869059 1.2656172 -11.1875 0.8125 C-10.35605469 0.65394531 -9.52460937 0.49539063 -8.66796875 0.33203125 C-5.75453604 -0.03054822 -2.93297422 -0.05566228 0 0 Z " fill="#85461E" transform="translate(712,431)" />
        <path d="M0 0 C0.33 0 0.66 0 1 0 C1.29418676 3.03117424 1.34933048 4.51781245 -0.46875 7.02734375 C-5.09924001 11.38178531 -9.79181041 15.35701326 -15 19 C-15.82628906 19.61617187 -16.65257812 20.23234375 -17.50390625 20.8671875 C-38.02307211 35.53596532 -61.11787482 39.75937665 -85.89453125 37.671875 C-89 37 -89 37 -91 34 C-90.00371582 34.00112793 -89.00743164 34.00225586 -87.98095703 34.00341797 C-61.78702472 34.37960484 -61.78702472 34.37960484 -37 27 C-35.7508363 26.45251497 -34.50083449 25.90693822 -33.25 25.36328125 C-21.02314917 19.71099784 -11.32115832 11.72549988 -2.08203125 2.08984375 C-1.39496094 1.40019531 -0.70789063 0.71054687 0 0 Z " fill="#4C1D0F" transform="translate(753,571)" />
        <path d="M0 0 C-2.44303797 13.88943967 -2.44303797 13.88943967 -6.234375 16.59375 C-8.6875 17.3125 -8.6875 17.3125 -11.07421875 17.67578125 C-11.70972656 17.78277344 -12.34523438 17.88976562 -13 18 C-13.33 18.66 -13.66 19.32 -14 20 C-12.02 20 -10.04 20 -8 20 C-8.33 22.64 -8.66 25.28 -9 28 C-11 26.625 -11 26.625 -13 25 C-13 24.34 -13 23.68 -13 23 C-14.65 22.67 -16.3 22.34 -18 22 C-18.0825 21.401875 -18.165 20.80375 -18.25 20.1875 C-19.20630014 17.39829126 -20.62860019 16.65523707 -23 15 C-22.27780292 11.21163284 -21.44601379 7.58241762 -20 4 C-17.25 2.4375 -17.25 2.4375 -14 2 C-12.865625 1.62875 -11.73125 1.2575 -10.5625 0.875 C-6.89463989 -0.02587792 -3.75925669 -0.06272896 0 0 Z " fill="#693114" transform="translate(769,506)" />
        <path d="M0 0 C5.61 0 11.22 0 17 0 C17.33 5.94 17.66 11.88 18 18 C12.06 18.33 6.12 18.66 0 19 C0 12.73 0 6.46 0 0 Z " fill="#83461F" transform="translate(736,448)" />
        <path d="M0 0 C0.05441656 1.89551022 0.09298035 3.7914792 0.125 5.6875 C0.14820313 6.74324219 0.17140625 7.79898437 0.1953125 8.88671875 C-0.0138939 12.22146875 -0.17769462 14.18593056 -2 17 C-4.5850773 18.04541365 -6.75251274 18.72902676 -9.4375 19.3125 C-10.11876953 19.48072266 -10.80003906 19.64894531 -11.50195312 19.82226562 C-14.39891989 20.51742415 -17.01260583 21 -20 21 C-19.71632132 18.76980273 -19.42272612 16.54086546 -19.125 14.3125 C-18.96257813 13.07113281 -18.80015625 11.82976562 -18.6328125 10.55078125 C-17.60423319 4.77930846 -17.60423319 4.77930846 -16 2 C-13.828125 1.07421875 -13.828125 1.07421875 -11.25 0.6875 C-10.40953125 0.54699219 -9.5690625 0.40648437 -8.703125 0.26171875 C-5.78633448 -0.02068727 -2.92865034 -0.04709818 0 0 Z " fill="#80441E" transform="translate(771,486)" />
        <path d="M0 0 C0.79792969 0.00386719 1.59585938 0.00773437 2.41796875 0.01171875 C3.21589844 0.00785156 4.01382813 0.00398438 4.8359375 0 C10.79136108 0.01011108 10.79136108 0.01011108 11.91796875 1.13671875 C11.99117038 3.66949525 12.01024444 6.16775793 11.98046875 8.69921875 C11.95984375 11.15359375 11.93921875 13.60796875 11.91796875 16.13671875 C2.51296875 17.12671875 2.51296875 17.12671875 -7.08203125 18.13671875 C-7.10265625 15.35234375 -7.12328125 12.56796875 -7.14453125 9.69921875 C-7.15363525 8.82080322 -7.16273926 7.9423877 -7.17211914 7.03735352 C-7.17926216 5.07025901 -7.13235018 3.10318254 -7.08203125 1.13671875 C-5.19650595 -0.74880655 -2.50434294 0.00425186 0 0 Z " fill="#85461F" transform="translate(721.08203125,429.86328125)" />
        <path d="M0 0 C0.99 0.495 0.99 0.495 2 1 C2.82903365 3.89260654 3.56209769 6.76111885 4.25 9.6875 C5.77820334 15.91755339 7.53746388 21.6211966 10.25 27.4375 C12.78090263 32.94593514 13.72484476 37.62780374 13.89453125 43.671875 C13.8431596 46.02488384 13.8431596 46.02488384 15 48 C16.70449434 48.13041505 18.41556174 48.17610374 20.125 48.1875 C26.44266883 48.58611482 30.99222215 50.54564349 36.54003906 53.33935547 C41.03139836 55.59668888 45.36989272 57.19655778 50.2421875 58.39453125 C52 59 52 59 53 61 C44.57672514 60.96964586 38.72225216 59.14157501 31.25 55.3515625 C26.96841628 53.57100004 23.12859948 53.43308743 18.54296875 53.26953125 C15.06363076 52.90075349 13.28286624 51.59774434 11 49 C9.76966471 46.53932942 10 45.0052842 10 42.25 C9.55557469 35.5512985 7.13030384 30.16274632 4.4375 24.0625 C0.76576314 15.70613335 -1.40964489 9.22360237 0 0 Z " fill="#5A3024" transform="translate(608,544)" />
        <path d="M0 0 C0 5.61 0 11.22 0 17 C-7.875 19.25 -7.875 19.25 -12.4375 19.125 C-13.943125 19.08375 -15.44875 19.0425 -17 19 C-16.67 13.39 -16.34 7.78 -16 2 C-10.19823201 0.57187249 -6.14742119 0 0 0 Z " fill="#82461F" transform="translate(772,466)" />
        <path d="M0 0 C0.66 0 1.32 0 2 0 C1.11822136 4.5214867 -1.46899941 7.30286298 -4.4375 10.6875 C-4.97955078 11.30963379 -5.52160156 11.93176758 -6.08007812 12.57275391 C-14.04828519 21.58486149 -22.74332277 28.6992642 -33 35 C-33.64066406 35.39960937 -34.28132812 35.79921875 -34.94140625 36.2109375 C-41.98350159 40.14946957 -50.27006176 41.87821083 -58 44 C-58.6496875 44.1846582 -59.299375 44.36931641 -59.96875 44.55957031 C-62.15118001 45.0327799 -64.09670697 45.11359495 -66.328125 45.09765625 C-67.12734375 45.09443359 -67.9265625 45.09121094 -68.75 45.08789062 C-69.575 45.07951172 -70.4 45.07113281 -71.25 45.0625 C-72.09046875 45.05798828 -72.9309375 45.05347656 -73.796875 45.04882812 C-75.86461401 45.03707961 -77.93231624 45.01914522 -80 45 C-80 44.34 -80 43.68 -80 43 C-79.41734375 42.93530518 -78.8346875 42.87061035 -78.234375 42.80395508 C-47.91170764 39.3324626 -23.78299366 29.43966779 -4.125 5 C-3.38507813 4.05125 -2.64515625 3.1025 -1.8828125 2.125 C-1.26148438 1.42375 -0.64015625 0.7225 0 0 Z " fill="#5C1804" transform="translate(742,547)" />
        <path d="M0 0 C-2 2 -2 2 -4.625 2.125 C-5.40875 2.08375 -6.1925 2.0425 -7 2 C-7.12117187 2.60328125 -7.24234375 3.2065625 -7.3671875 3.828125 C-7.61855469 5.02695312 -7.61855469 5.02695312 -7.875 6.25 C-8.03742187 7.03890625 -8.19984375 7.8278125 -8.3671875 8.640625 C-8.99744505 10.99047415 -9.87863282 12.84897597 -11 15 C-12.47114615 18.62128283 -13.75550131 22.29522314 -15 26 C-15.29390625 26.87398438 -15.5878125 27.74796875 -15.890625 28.6484375 C-18.35509129 37.08077806 -18.52572334 45.52201504 -18.7890625 54.2421875 C-18.91123373 57.90301248 -19.27535135 61.40051574 -20 65 C-26.82525601 52.25952212 -23.78130834 32.4080337 -20 19 C-19.34 18.01 -18.68 17.02 -18 16 C-17.67 17.32 -17.34 18.64 -17 20 C-16.76925781 19.29875 -16.53851562 18.5975 -16.30078125 17.875 C-11.14312442 2.87090739 -11.14312442 2.87090739 -5.375 -0.5625 C-3 -1 -3 -1 0 0 Z " fill="#9F603D" transform="translate(628,485)" />
        <path d="M0 0 C0.66 0.66 1.32 1.32 2 2 C1.7578125 5.2578125 1.7578125 5.2578125 1.125 9.125 C0.92132812 10.40632813 0.71765625 11.68765625 0.5078125 13.0078125 C0.34023438 13.99523437 0.17265625 14.98265625 0 16 C-5.61854082 17.95088223 -11.21113776 19.63172347 -17 21 C-16.79148338 19.40137256 -16.57448837 17.80356238 -16.32421875 16.2109375 C-16.09067778 14.61835694 -15.91241983 13.01732077 -15.76953125 11.4140625 C-15.43522242 8.73172575 -15.05198706 6.49343315 -14 4 C-11.50613227 2.13676549 -9.02796103 1.56281804 -6 1 C-4.88625 0.731875 -3.7725 0.46375 -2.625 0.1875 C-1.75875 0.125625 -0.8925 0.06375 0 0 Z " fill="#642F13" transform="translate(785,501)" />
        <path d="M0 0 C0.33 0.99 0.66 1.98 1 3 C1.886875 2.505 2.77375 2.01 3.6875 1.5 C6.90804369 0.04164059 8.5544472 -0.65186134 12 0 C15.42609783 3.05901592 15.57599326 6.59032988 16 11 C15.24976563 11.06316406 14.49953125 11.12632812 13.7265625 11.19140625 C5.5075262 12.17479221 0.3495364 14.74618006 -6 20 C-7.32 19.34 -8.64 18.68 -10 18 C-9.49785005 13.60618791 -8.07786311 11.16580205 -5 8 C-2.75 7.1875 -2.75 7.1875 -1 7 C-1 5.68 -1 4.36 -1 3 C-1.66 2.67 -2.32 2.34 -3 2 C-2.01 1.34 -1.02 0.68 0 0 Z " fill="#6C3519" transform="translate(771,427)" />
        <path d="M0 0 C3.4419567 3.4419567 4.9659668 6.65215952 7 11 C7.37769531 11.75152344 7.75539063 12.50304687 8.14453125 13.27734375 C10.49415432 18.13433844 11.45905924 21.60605397 11 27 C9.39743892 27.50512244 7.79288208 28.00391627 6.1875 28.5 C5.29417969 28.7784375 4.40085937 29.056875 3.48046875 29.34375 C1 30 1 30 -2 30 C-1.94014838 27.37251369 -1.85323776 24.75083005 -1.75 22.125 C-1.73582031 21.37863281 -1.72164062 20.63226563 -1.70703125 19.86328125 C-1.609375 17.6953125 -1.609375 17.6953125 -1 14 C1.046875 12.4921875 1.046875 12.4921875 3 12 C2.01 11.67 1.02 11.34 0 11 C0 7.37 0 3.74 0 0 Z " fill="#6A3112" transform="translate(775,471)" />
        <path d="M0 0 C12.5 -0.125 12.5 -0.125 17 1 C17 4.63 17 8.26 17 12 C8.585 12.495 8.585 12.495 0 13 C0 8.71 0 4.42 0 0 Z " fill="#844720" transform="translate(695,417)" />
        <path d="M0 0 C-0.44238385 7.53216715 -1.13905228 14.6802723 -3 22 C-3.66 22 -4.32 22 -5 22 C-6.55078125 20.42578125 -6.55078125 20.42578125 -8.3125 18.3125 C-11.08499308 15.04699036 -13.92600859 11.98084015 -17 9 C-16.40625 7.171875 -16.40625 7.171875 -15 5 C-12.03125 3.515625 -12.03125 3.515625 -8.5 2.25 C-7.3346875 1.82203125 -6.169375 1.3940625 -4.96875 0.953125 C-2 0 -2 0 0 0 Z " fill="#622E13" transform="translate(691,435)" />
        <path d="M0 0 C0.99 0 1.98 0 3 0 C3.74609375 1.671875 3.74609375 1.671875 4 4 C-4.9777746 18.20561877 -19.39195001 28.82302269 -32.875 38.4375 C-33.60066162 38.95795898 -34.32632324 39.47841797 -35.07397461 40.01464844 C-38.60467922 42.49862705 -41.85615176 44.64309283 -46 46 C-42.8756532 42.55244491 -39.54529409 39.88625751 -35.75 37.1875 C-26.71464968 31.19103408 -26.71464968 31.19103408 -20 23 C-19.34 23 -18.68 23 -18 23 C-18 22.34 -18 21.68 -18 21 C-16.37170041 19.29582982 -14.69694091 17.63583224 -13 16 C-11.27847128 14.17905169 -9.57017263 12.34550904 -7.875 10.5 C-7.02679687 9.5821875 -6.17859375 8.664375 -5.3046875 7.71875 C-2.94108252 5.10045944 -2.94108252 5.10045944 -1.3828125 2.15625 C-0.92648437 1.4446875 -0.47015625 0.733125 0 0 Z " fill="#C57430" transform="translate(731,522)" />
        <path d="M0 0 C2 2 2 2 2.08203125 3.8828125 C1.01714107 12.74146415 -1.20674337 19.85451111 -8 26 C-10.85989709 27.76350652 -12.90839394 28.23638687 -16.25 28.125 C-17.4875 28.08375 -18.725 28.0425 -20 28 C-20.24105469 28.85464844 -20.48210938 29.70929687 -20.73046875 30.58984375 C-22.11955707 34.32114867 -24.0211273 37.34700344 -26.3125 40.5625 C-26.69083984 41.11357422 -27.06917969 41.66464844 -27.45898438 42.23242188 C-30.02058833 45.88628335 -32.78206593 48.94153877 -36 52 C-36.63824582 47.61516832 -35.17462273 45.34988392 -32.59179688 41.87695312 C-31.89666992 40.97879883 -31.89666992 40.97879883 -31.1875 40.0625 C-27.98688931 35.8482865 -25.22541197 31.8426739 -23 27 C-22.34 27 -21.68 27 -21 27 C-20.67 26.34 -20.34 25.68 -20 25 C-18.948125 24.87625 -17.89625 24.7525 -16.8125 24.625 C-12.2505018 23.87713144 -10.39133062 23.17015688 -7 20 C-3.63102689 13.68084877 -1.47766676 6.98533375 0 0 Z " fill="#4C1F13" transform="translate(790,523)" />
        <path d="M0 0 C0.66 0.66 1.32 1.32 2 2 C1.24976563 2.65484375 0.49953125 3.3096875 -0.2734375 3.984375 C-18.68710994 20.29760551 -30.62658855 39.23947486 -37 63 C-37.66 63 -38.32 63 -39 63 C-38.3462282 44.69438955 -27.40574337 26.99157475 -15.0078125 14.11328125 C-12.92995842 11.99718387 -12.92995842 11.99718387 -11.0390625 9.46875 C-8.96079834 6.95253745 -6.854918 5.1411885 -4.25 3.1875 C-3.05117188 2.28064453 -3.05117188 2.28064453 -1.828125 1.35546875 C-1.22484375 0.90816406 -0.6215625 0.46085937 0 0 Z " fill="#5D1906" transform="translate(663,464)" />
        <path d="M0 0 C0.09765625 5.76171875 0.09765625 5.76171875 0 8 C-0.03351562 8.8559375 -0.06703125 9.711875 -0.1015625 10.59375 C-1 13 -1 13 -3.87109375 14.58203125 C-5.04800781 14.98808594 -6.22492187 15.39414062 -7.4375 15.8125 C-8.61183594 16.23144531 -9.78617188 16.65039062 -10.99609375 17.08203125 C-14 18 -14 18 -16 18 C-16.05447047 16.58376784 -16.09300508 15.16691809 -16.125 13.75 C-16.14820313 12.96109375 -16.17140625 12.1721875 -16.1953125 11.359375 C-15.96837938 8.61802295 -15.62624313 7.23027629 -14 5 C-11.25 3.515625 -11.25 3.515625 -8 2.25 C-6.39125 1.60804688 -6.39125 1.60804688 -4.75 0.953125 C-2 0 -2 0 0 0 Z " fill="#82441E" transform="translate(692,419)" />
        <path d="M0 0 C-0.40976602 4.96173201 -2.54506678 6.88557249 -6.125 10.1875 C-15.43215656 19.09624915 -21.51642107 29.97350522 -28 41 C-29.11328125 39.28125 -29.11328125 39.28125 -30 37 C-26.71594159 24.83355542 -15.39547204 13.91713244 -7 5 C-6.20529297 4.14341797 -6.20529297 4.14341797 -5.39453125 3.26953125 C-2.27153361 0 -2.27153361 0 0 0 Z " fill="#B9703A" transform="translate(663,468)" />
        <path d="M0 0 C4.52099663 1.80839865 7.06490573 3.40476701 10.75 6.4375 C11.71421875 7.21996094 12.6784375 8.00242187 13.671875 8.80859375 C16 11 16 11 17 14 C11.26039225 14.83485204 5.80058027 15.09063407 0 15 C0 10.05 0 5.1 0 0 Z " fill="#874820" transform="translate(736,431)" />
        <path d="M0 0 C0.33 0 0.66 0 1 0 C1.03758423 0.92897095 1.03758423 0.92897095 1.07592773 1.87670898 C1.19322658 4.73044888 1.31533586 7.58396441 1.4375 10.4375 C1.47681641 11.41138672 1.51613281 12.38527344 1.55664062 13.38867188 C1.81368167 19.30061599 2.27719621 25.12645997 3 31 C3.66 31 4.32 31 5 31 C5.30744141 32.68029297 5.30744141 32.68029297 5.62109375 34.39453125 C5.89311689 35.86720824 6.16525849 37.33986336 6.4375 38.8125 C6.57220703 39.55048828 6.70691406 40.28847656 6.84570312 41.04882812 C7.41419737 44.11315076 8.01309651 47.03928953 9 50 C9.99 49.505 9.99 49.505 11 49 C11.50588147 50.91512272 12.00448391 52.83216922 12.5 54.75 C12.7784375 55.81734375 13.056875 56.8846875 13.34375 57.984375 C14 61 14 61 14 65 C13.34 65 12.68 65 12 65 C11.75765625 64.23816406 11.5153125 63.47632813 11.265625 62.69140625 C9.00067209 55.68049791 9.00067209 55.68049791 6.0625 48.9375 C-0.28422763 34.82804175 -5.03960144 15.11880431 0 0 Z " fill="#BD713E" transform="translate(610,520)" />
        <path d="M0 0 C0.99 0 1.98 0 3 0 C3.75 2.75 3.75 2.75 4 6 C2.1875 8.375 2.1875 8.375 0 10 C-0.66 10 -1.32 10 -2 10 C-2.33 11.32 -2.66 12.64 -3 14 C-3.66 14 -4.32 14 -5 14 C-5.13341797 14.86625 -5.13341797 14.86625 -5.26953125 15.75 C-7.32640317 22.08560549 -14.64947727 26.5951219 -20 30 C-20.5775 30.639375 -21.155 31.27875 -21.75 31.9375 C-26.18140305 35.99961946 -31.62901325 38.79560459 -37.625 39.3125 C-38.40875 39.209375 -39.1925 39.10625 -40 39 C-37.11970643 36.71447703 -34.2169425 35.02679578 -30.9375 33.375 C-19.48487309 27.16959259 -2.29424484 13.88273453 2 1 C1.34 0.67 0.68 0.34 0 0 Z " fill="#9E542B" transform="translate(742,546)" />
        <path d="M0 0 C0.99 0.33 1.98 0.66 3 1 C3 2.65 3 4.3 3 6 C11.415 5.505 11.415 5.505 20 5 C20.33 4.34 20.66 3.68 21 3 C20.67 4.65 20.34 6.3 20 8 C14.39 8 8.78 8 3 8 C3 14.27 3 20.54 3 27 C3.99 27.33 4.98 27.66 6 28 C4.68 28 3.36 28 2 28 C2 25.36 2 22.72 2 20 C1.34 20 0.68 20 0 20 C0 16.37 0 12.74 0 9 C-1.505625 9.020625 -3.01125 9.04125 -4.5625 9.0625 C-8.82520221 9.06856359 -12.80529195 8.72951444 -17 8 C-17 7.67 -17 7.34 -17 7 C-11.33357449 5.77482692 -5.76291482 5.90771133 0 6 C0 4.02 0 2.04 0 0 Z " fill="#652607" transform="translate(733,440)" />
        <path d="M0 0 C-0.4452885 5.27315333 -1.08373163 10.01770224 -3 15 C-6.27358823 13.90880392 -6.83094239 13.24360354 -8.875 10.625 C-11.31895587 7.63115406 -13.66222795 5.96339532 -17 4 C-17 3.01 -17 2.02 -17 1 C-11.29309366 0.00749455 -5.78591511 -0.10477512 0 0 Z " fill="#814420" transform="translate(751,490)" />
        <path d="M0 0 C0 1.65 0 3.3 0 5 C0.81984375 4.77183594 1.6396875 4.54367187 2.484375 4.30859375 C4.10085938 3.87740234 4.10085938 3.87740234 5.75 3.4375 C6.81734375 3.14746094 7.8846875 2.85742188 8.984375 2.55859375 C12.72391686 1.86590659 14.67178941 2.33589471 18 4 C18.625 6.0625 18.625 6.0625 19 8 C19.66 6.68 20.32 5.36 21 4 C20.88512252 5.58409994 20.75765492 7.16728963 20.625 8.75 C20.55539062 9.63171875 20.48578125 10.5134375 20.4140625 11.421875 C20.00149945 13.99066382 19.28839043 15.75841015 18 18 C17.67 18 17.34 18 17 18 C17 13.71 17 9.42 17 5 C15.60587891 5.30744141 15.60587891 5.30744141 14.18359375 5.62109375 C12.94738281 5.89050781 11.71117187 6.15992188 10.4375 6.4375 C9.21933594 6.70433594 8.00117187 6.97117187 6.74609375 7.24609375 C3.16360843 7.96707359 -0.37959502 8.52007501 -4 9 C-3.525625 9.78375 -3.05125 10.5675 -2.5625 11.375 C-1.66101977 12.88948678 -0.78820515 14.4235897 0 16 C-1.32 16.33 -2.64 16.66 -4 17 C-5.65 15.02 -7.3 13.04 -9 11 C-7.68 10.67 -6.36 10.34 -5 10 C-5.0825 9.0925 -5.165 8.185 -5.25 7.25 C-5 4 -5 4 -3.0625 1.625 C-1 0 -1 0 0 0 Z " fill="#63250B" transform="translate(693,447)" />
        <path d="M0 0 C0 0.33 0 0.66 0 1 C-13.99482911 3.779115 -28.83802706 6.06397402 -43 3 C-43.66 2.01 -44.32 1.02 -45 0 C-40.0380762 -0.16896057 -35.0759727 -0.32936176 -30.11352539 -0.48217773 C-28.42888124 -0.53522089 -26.74430629 -0.59051541 -25.05981445 -0.64819336 C-22.62466353 -0.73116887 -20.18937045 -0.80577635 -17.75390625 -0.87890625 C-16.64239952 -0.91945885 -16.64239952 -0.91945885 -15.50843811 -0.96083069 C-10.24559077 -1.10771095 -5.22310044 -0.67067048 0 0 Z " fill="#572519" transform="translate(707,605)" />
        <path d="M0 0 C-0.66 5.28 -1.32 10.56 -2 16 C-2.66 16 -3.32 16 -4 16 C-5.55078125 14.42578125 -5.55078125 14.42578125 -7.3125 12.3125 C-9.43644684 9.80197706 -11.55501344 7.39176579 -13.9375 5.125 C-16 3 -16 3 -16 1 C-14.64648453 0.82812502 -13.29213367 0.66282742 -11.9375 0.5 C-10.80634766 0.36078125 -10.80634766 0.36078125 -9.65234375 0.21875 C-6.44495951 -0.04577654 -3.21827406 0 0 0 Z " fill="#7C4220" transform="translate(732,471)" />
        <path d="M0 0 C6.25572952 3.12786476 10.94241894 8.31938652 15 14 C15 14.66 15 15.32 15 16 C10.38 16.33 5.76 16.66 1 17 C0.67 11.39 0.34 5.78 0 0 Z " fill="#824522" transform="translate(756,448)" />
        <path d="M0 0 C0.99 0.495 0.99 0.495 2 1 C2.82903741 3.89261965 3.56221905 6.76107595 4.25 9.6875 C5.76925489 15.89151073 7.51408081 21.5381321 10.25 27.3125 C13.45059304 34.26353156 13.97681812 40.37316261 14 48 C13.34 48 12.68 48 12 48 C12 43.71 12 39.42 12 35 C11.01 35 10.02 35 9 35 C-1.74495628 11.41761516 -1.74495628 11.41761516 0 0 Z " fill="#58220D" transform="translate(608,544)" />
        <path d="M0 0 C0.66 0 1.32 0 2 0 C0.65905281 4.71814754 -1.34313771 8.48468556 -4.1875 12.4375 C-4.61603271 13.03369141 -5.04456543 13.62988281 -5.48608398 14.24414062 C-12.48960817 23.65562358 -22.82291696 36.56944456 -34 41 C-34.99 40.67 -35.98 40.34 -37 40 C-35.87926138 39.16094435 -34.75325453 38.32892169 -33.625 37.5 C-32.99851562 37.0359375 -32.37203125 36.571875 -31.7265625 36.09375 C-30 35 -30 35 -28 35 C-28 34.34 -28 33.68 -28 33 C-27.01 33 -26.02 33 -25 33 C-25 32.34 -25 31.68 -25 31 C-23.33784732 29.66104368 -21.67036393 28.32869858 -20 27 C-19.278125 26.0925 -18.55625 25.185 -17.8125 24.25 C-17.214375 23.5075 -16.61625 22.765 -16 22 C-15.34 22 -14.68 22 -14 22 C-13.72929688 21.43152344 -13.45859375 20.86304688 -13.1796875 20.27734375 C-10.13584455 14.4013158 -6.12078488 9.1509811 -2 4 C-1.29114106 2.68861096 -0.60543548 1.36222983 0 0 Z " fill="#A05A31" transform="translate(765,550)" />
        <path d="M0 0 C-0.30798326 1.48011371 -0.621518 2.95907325 -0.9375 4.4375 C-1.11152344 5.26121094 -1.28554688 6.08492187 -1.46484375 6.93359375 C-2 9 -2 9 -3 10 C-5.33297433 10.04092937 -7.66705225 10.04241723 -10 10 C-10 9.34 -10 8.68 -10 8 C-10.78375 7.731875 -11.5675 7.46375 -12.375 7.1875 C-15 6 -15 6 -17 3 C-11.17745757 1.03181664 -6.16618181 -0.40214229 0 0 Z " fill="#8B4920" transform="translate(769,506)" />
        <path d="M0 0 C3.74957309 6.69566623 4.28212191 12.93795014 4.125 20.4375 C4.11597656 21.26443359 4.10695313 22.09136719 4.09765625 22.94335938 C4.07431512 24.96236708 4.03845288 26.98122356 4 29 C3.67 29 3.34 29 3 29 C2.67 25.7 2.34 22.4 2 19 C1.67 19.66 1.34 20.32 1 21 C-0.32 20.67 -1.64 20.34 -3 20 C-3.02694851 18.04174127 -3.04637218 16.08337774 -3.0625 14.125 C-3.07410156 13.03445313 -3.08570313 11.94390625 -3.09765625 10.8203125 C-3 8 -3 8 -2 6 C-1.34 6 -0.68 6 0 6 C0 4.02 0 2.04 0 0 Z " fill="#441A0E" transform="translate(789,495)" />
        <path d="M0 0 C1.4540625 0.0309375 1.4540625 0.0309375 2.9375 0.0625 C2.87726506 2.14662907 2.78841679 4.22994435 2.6875 6.3125 C2.64109375 7.47265625 2.5946875 8.6328125 2.546875 9.828125 C1.84303311 13.5639012 0.96862024 14.82787851 -2.0625 17.0625 C-3.0525 17.0625 -4.0425 17.0625 -5.0625 17.0625 C-4.92228195 14.41625716 -4.77560224 11.77065422 -4.625 9.125 C-4.58568359 8.37025391 -4.54636719 7.61550781 -4.50585938 6.83789062 C-4.11213021 0.08392102 -4.11213021 0.08392102 0 0 Z " fill="#894822" transform="translate(778.0625,483.9375)" />
        <path d="M0 0 C0.08333357 4.8333472 -0.04738513 9.23692563 -1 14 C-1.66 14 -2.32 14 -3 14 C-4.62109375 12.3203125 -4.62109375 12.3203125 -6.4375 10.125 C-8.58400884 7.53806278 -10.16776562 5.88815626 -13 4 C-13 3.34 -13 2.68 -13 2 C-8.49646738 0.24252386 -4.82360189 -0.19294408 0 0 Z " fill="#7D421F" transform="translate(710,452)" />
        <path d="M0 0 C11.14156955 -0.38175429 21.88825917 -0.43387942 32 5 C32 5.66 32 6.32 32 7 C29.69 6.67 27.38 6.34 25 6 C25 7.32 25 8.64 25 10 C24.34 10 23.68 10 23 10 C23 8.35 23 6.7 23 5 C22.30132813 4.93941406 21.60265625 4.87882812 20.8828125 4.81640625 C19.97273437 4.73261719 19.06265625 4.64882813 18.125 4.5625 C17.22007812 4.48128906 16.31515625 4.40007812 15.3828125 4.31640625 C13 4 13 4 11 3 C9.906875 3 8.81375 3 7.6875 3 C4.57292332 3 2.00585622 2.72869242 -1 2 C-0.67 1.34 -0.34 0.68 0 0 Z " fill="#43190C" transform="translate(689,413)" />
        <path d="M0 0 C0 2.64 0 5.28 0 8 C-4.29 8 -8.58 8 -13 8 C-13 6.02 -13 4.04 -13 2 C-8.46298506 0.54815522 -4.81938524 -0.23509196 0 0 Z " fill="#AE6437" transform="translate(712,431)" />
        <path d="M0 0 C0.33 0 0.66 0 1 0 C1.77916092 5.02125926 2.13016601 8.97703996 1 14 C1.67546875 13.84402344 2.3509375 13.68804687 3.046875 13.52734375 C4.38492188 13.23537109 4.38492188 13.23537109 5.75 12.9375 C6.63171875 12.74027344 7.5134375 12.54304688 8.421875 12.33984375 C11.03652431 11.99518543 12.51968004 12.21456535 15 13 C16.99788438 13.34578768 18.99759451 13.68143549 21 14 C20.67 14.66 20.34 15.32 20 16 C19.39414062 15.97679687 18.78828125 15.95359375 18.1640625 15.9296875 C12.05955243 15.79820574 5.76860875 15.76662813 0 18 C-1.75568004 20.45748398 -1.75568004 20.45748398 -2 23 C-2.66 22.67 -3.32 22.34 -4 22 C-3.71125 20.783125 -3.4225 19.56625 -3.125 18.3125 C-1.77103836 12.25835725 -0.89152079 6.13631862 0 0 Z " fill="#612106" transform="translate(731,475)" />
        <path d="M0 0 C2.64 0 5.28 0 8 0 C7.67 4.95 7.34 9.9 7 15 C3 14 3 14 1.26171875 12.265625 C-0.25788886 9.53691784 -0.30985837 7.84974545 -0.1875 4.75 C-0.16042969 3.85796875 -0.13335938 2.9659375 -0.10546875 2.046875 C-0.07066406 1.37140625 -0.03585937 0.6959375 0 0 Z " fill="#6D3317" transform="translate(666,426)" />
        <path d="M0 0 C0.33 0 0.66 0 1 0 C1 1.65 1 3.3 1 5 C1.928125 5.2784375 1.928125 5.2784375 2.875 5.5625 C6.12720187 7.76251891 6.2489606 10.24480299 7 14 C7.125 17.4375 7.125 17.4375 7 20 C7.99 20 8.98 20 10 20 C10 19.34 10 18.68 10 18 C10.99 18.33 11.98 18.66 13 19 C11.700625 19.99 11.700625 19.99 10.375 21 C6.56113756 24.15097682 3.82138448 27.96802147 1 32 C0.34 31.34 -0.32 30.68 -1 30 C-0.34 29.34 0.32 28.68 1 28 C1.68753301 26.34183216 2.35561283 24.67540664 3 23 C3.33 22.67 3.66 22.34 4 22 C4.3191741 15.72290929 4.27190142 10.53918394 -0.125 5.625 C-0.74375 5.08875 -1.3625 4.5525 -2 4 C-1.34 2.68 -0.68 1.36 0 0 Z " fill="#BF723F" transform="translate(645,450)" />
        <path d="M0 0 C6.54040119 1.01436778 11.74201475 2.88816957 17 7 C17 7.33 17 7.66 17 8 C11.39 8 5.78 8 0 8 C0 5.36 0 2.72 0 0 Z " fill="#864724" transform="translate(715,420)" />
        <path d="M0 0 C5.98993047 -0.3152595 9.63560356 0.31780178 15 3 C15 4.32 15 5.64 15 7 C9.65370398 8.0024305 5.37625234 7.84888195 0 7 C0.33 6.34 0.66 5.68 1 5 C3.0625 4.375 3.0625 4.375 5 4 C2.525 3.01 2.525 3.01 0 2 C0 1.34 0 0.68 0 0 Z " fill="#BD551E" transform="translate(629,471)" />
        <path d="M0 0 C2.97 0 5.94 0 9 0 C9.79953138 3.28696233 10.09658936 4.71023192 9 8 C6.03 8 3.06 8 0 8 C0 5.36 0 2.72 0 0 Z " fill="#AB6438" transform="translate(715,431)" />
        <path d="M0 0 C-0.99 0.495 -0.99 0.495 -2 1 C-1.67 1.66 -1.34 2.32 -1 3 C-9.91510638 5.641513 -18.79395814 5.17875809 -28 5 C-28 4.34 -28 3.68 -28 3 C-27.34926514 2.91435791 -26.69853027 2.82871582 -26.02807617 2.74047852 C-23.08080626 2.35085906 -20.13415629 1.95673217 -17.1875 1.5625 C-16.16333984 1.42779297 -15.13917969 1.29308594 -14.08398438 1.15429688 C-13.10107422 1.02216797 -12.11816406 0.89003906 -11.10546875 0.75390625 C-10.19949951 0.63345947 -9.29353027 0.5130127 -8.36010742 0.38891602 C-1.98490932 -0.66163644 -1.98490932 -0.66163644 0 0 Z " fill="#5B1501" transform="translate(690,587)" />
        <path d="M0 0 C0.66 0 1.32 0 2 0 C1.93941406 0.70640625 1.87882813 1.4128125 1.81640625 2.140625 C0.97731191 12.41630344 0.48253995 22.70239204 0 33 C-1.74490167 29.97284686 -2.25590295 27.77875883 -2.265625 24.296875 C-2.26820313 23.39839844 -2.27078125 22.49992188 -2.2734375 21.57421875 C-2.26570312 20.64222656 -2.25796875 19.71023438 -2.25 18.75 C-2.25773438 17.83347656 -2.26546875 16.91695312 -2.2734375 15.97265625 C-2.25727709 10.30843118 -1.60703824 5.43331978 0 0 Z " fill="#47130A" transform="translate(608,508)" />
        <path d="M0 0 C-0.33 3.96 -0.66 7.92 -1 12 C-4.92600963 10.03699519 -7.09649559 8.22611601 -10 5 C-10 4.34 -10 3.68 -10 3 C-8.70990357 2.49596232 -7.41786211 1.99690074 -6.125 1.5 C-5.04605469 1.08234375 -5.04605469 1.08234375 -3.9453125 0.65625 C-2 0 -2 0 0 0 Z " fill="#7C4221" transform="translate(691,435)" />
        <path d="M0 0 C0.33 0 0.66 0 1 0 C1.33 4.29 1.66 8.58 2 13 C2.33 9.37 2.66 5.74 3 2 C3.33 2 3.66 2 4 2 C4.04898438 3.13179688 4.09796875 4.26359375 4.1484375 5.4296875 C4.22346514 6.91148339 4.29901297 8.393253 4.375 9.875 C4.4059375 10.62136719 4.436875 11.36773437 4.46875 12.13671875 C4.55643831 16.53473188 4.55643831 16.53473188 7 20 C5.35 20.66 3.7 21.32 2 22 C1.67 24.31 1.34 26.62 1 29 C0.67 29 0.34 29 0 29 C-0.33 26.36 -0.66 23.72 -1 21 C-2.98 21 -4.96 21 -7 21 C-7 20.67 -7 20.34 -7 20 C-3.04 19.505 -3.04 19.505 1 19 C0.83628906 18.49984375 0.67257812 17.9996875 0.50390625 17.484375 C-0.1878911 14.0736532 -0.10504665 10.71264243 -0.0625 7.25 C-0.05798828 6.55261719 -0.05347656 5.85523438 -0.04882812 5.13671875 C-0.0371002 3.42444197 -0.01916653 1.71220967 0 0 Z " fill="#6B2E11" transform="translate(753,448)" />
        <path d="M0 0 C4.15933167 3.39990314 7.68848842 6.74234226 11 11 C11.99 11.66 12.98 12.32 14 13 C14 13.99 14 14.98 14 16 C9.62342444 15.55085263 7.13774185 12.65308771 4.1875 9.6875 C3.67251953 9.20087891 3.15753906 8.71425781 2.62695312 8.21289062 C1.16796875 6.76171875 1.16796875 6.76171875 -1 4 C-0.82421875 1.64453125 -0.82421875 1.64453125 0 0 Z " fill="#541C08" transform="translate(672,442)" />
        <path d="M0 0 C0.99 0.66 1.98 1.32 3 2 C2.72414063 2.66386719 2.44828125 3.32773437 2.1640625 4.01171875 C0.77696529 7.57255555 -0.43051901 11.18391677 -1.625 14.8125 C-1.85445312 15.50537109 -2.08390625 16.19824219 -2.3203125 16.91210938 C-2.88158433 18.60761803 -3.44098313 20.30374653 -4 22 C-4.66 21.67 -5.32 21.34 -6 21 C-5.71483617 14.29864995 -5.03972129 5.03972129 0 0 Z " fill="#C0733A" transform="translate(633,506)" />
        <path d="M0 0 C0.33 0 0.66 0 1 0 C1.33 5.61 1.66 11.22 2 17 C2.33 11.72 2.66 6.44 3 1 C3.33 1 3.66 1 4 1 C4.02918874 4.70831663 4.04686218 8.41660342 4.0625 12.125 C4.07087891 13.17171875 4.07925781 14.2184375 4.08789062 15.296875 C4.10375207 20.3090905 4.08177213 25.07665912 3 30 C0.59972806 25.51949237 -0.12716846 21.87297426 -0.09765625 16.796875 C-0.09443359 15.8171875 -0.09121094 14.8375 -0.08789062 13.828125 C-0.07951172 12.81234375 -0.07113281 11.7965625 -0.0625 10.75 C-0.05798828 9.71875 -0.05347656 8.6875 -0.04882812 7.625 C-0.03706088 5.08327427 -0.02062011 2.54166681 0 0 Z " fill="#78493A" transform="translate(605,520)" />
        <path d="M0 0 C0.99 0.495 0.99 0.495 2 1 C2.80502219 3.46207518 3.49598315 5.86825139 4.125 8.375 C4.30675781 9.06078125 4.48851562 9.7465625 4.67578125 10.453125 C5.43346214 13.38130529 6 15.96334729 6 19 C5.34 19 4.68 19 4 19 C3.67 19.66 3.34 20.32 3 21 C-0.32270836 13.93924474 -0.31806054 7.7276932 0 0 Z " fill="#5B2F21" transform="translate(608,544)" />
        <path d="M0 0 C2 2 2 2 2.08203125 3.8828125 C1.42582651 9.34167512 0.28885239 13.98213129 -2 19 C-2.99 19.66 -3.98 20.32 -5 21 C-5.8498379 18.59663678 -6.12609248 17.37061435 -5.29296875 14.921875 C-4.92816406 14.20515625 -4.56335938 13.4884375 -4.1875 12.75 C-2.16779321 8.53587131 -0.99489791 4.55994874 0 0 Z " fill="#481A0D" transform="translate(790,523)" />
        <path d="M0 0 C2 3 2 3 1.64453125 5.12890625 C1.36996094 5.93199219 1.09539063 6.73507812 0.8125 7.5625 C0.52375 8.43777344 0.235 9.31304688 -0.0625 10.21484375 C-0.5265625 11.59349609 -0.5265625 11.59349609 -1 13 C-1.56925768 14.87295941 -2.13210812 16.74788223 -2.6875 18.625 C-3.125 20.08333333 -3.5625 21.54166667 -4 23 C-4.66 23 -5.32 23 -6 23 C-5.57200914 14.72550999 -2.95555804 7.66700112 0 0 Z " fill="#6B1F06" transform="translate(630,504)" />
        <path d="M0 0 C1.47968324 0.14049518 2.95874516 0.28754826 4.4375 0.4375 C5.67306641 0.55931641 5.67306641 0.55931641 6.93359375 0.68359375 C9 1 9 1 10 2 C11.51469448 2.23192865 13.03754562 2.41215238 14.5625 2.5625 C15.38878906 2.64628906 16.21507812 2.73007812 17.06640625 2.81640625 C17.70449219 2.87699219 18.34257813 2.93757812 19 3 C19 3.66 19 4.32 19 5 C19.66 5.33 20.32 5.66 21 6 C20.0925 6.144375 19.185 6.28875 18.25 6.4375 C15.18044731 6.87460319 15.18044731 6.87460319 13.0625 7.6875 C9.80004107 8.18181196 7.08488389 7.00851973 4 6 C6.89234315 5.17361624 8.88742431 5 12 5 C8.04 3.68 4.08 2.36 0 1 C0 0.67 0 0.34 0 0 Z " fill="#7B442D" transform="translate(648,599)" />
        <path d="M0 0 C0.33 0.99 0.66 1.98 1 3 C5.62 2.67 10.24 2.34 15 2 C15 2.99 15 3.98 15 5 C13.86820313 5.12117188 12.73640625 5.24234375 11.5703125 5.3671875 C10.08848969 5.53600276 8.60672158 5.70529855 7.125 5.875 C6.37863281 5.95363281 5.63226562 6.03226562 4.86328125 6.11328125 C0.47444593 6.5080769 0.47444593 6.5080769 -3 9 C-2.4140625 2.84765625 -2.4140625 2.84765625 -2 1 C-1.34 0.67 -0.68 0.34 0 0 Z " fill="#602307" transform="translate(710,467)" />
        <path d="M0 0 C-17.87896254 12 -17.87896254 12 -25 12 C-25 11.34 -25 10.68 -25 10 C-21.535 9.505 -21.535 9.505 -18 9 C-18 8.01 -18 7.02 -18 6 C-10.57142857 3.85714286 -10.57142857 3.85714286 -7 3 C-7 2.34 -7 1.68 -7 1 C-3.375 -1.125 -3.375 -1.125 0 0 Z " fill="#9A542C" transform="translate(717,573)" />
        <path d="M0 0 C0.33 0.66 0.66 1.32 1 2 C0.11957031 2.33773438 -0.76085937 2.67546875 -1.66796875 3.0234375 C-3.41013672 3.69246094 -3.41013672 3.69246094 -5.1875 4.375 C-6.91033203 5.03628906 -6.91033203 5.03628906 -8.66796875 5.7109375 C-11.45335994 6.78852143 -14.22997721 7.8836443 -17 9 C-13.48650119 1.55964957 -7.84643746 -0.64052551 0 0 Z " fill="#401B0F" transform="translate(684,414)" />
        <path d="M0 0 C0.33 0 0.66 0 1 0 C1 2.31 1 4.62 1 7 C4.3 7 7.6 7 11 7 C10.67 7.66 10.34 8.32 10 9 C7.35139573 9.59355614 4.70802678 9.74209269 2 10 C1.34 11.98 0.68 13.96 0 16 C-0.33 16 -0.66 16 -1 16 C-1 14.02 -1 12.04 -1 10 C-2.65 10 -4.3 10 -6 10 C-3 8 -3 8 -1 8 C-0.67 5.36 -0.34 2.72 0 0 Z " fill="#4D1602" transform="translate(712,441)" />
        <path d="M0 0 C0 0.33 0 0.66 0 1 C-1.74784829 1.36463732 -3.49840502 1.7163078 -5.25 2.0625 C-6.22453125 2.25972656 -7.1990625 2.45695313 -8.203125 2.66015625 C-11.00512324 3.00062252 -12.32651248 2.67262129 -15 2 C-16.7316239 1.8562677 -18.46698333 1.75425068 -20.203125 1.68359375 C-21.67265625 1.62075195 -21.67265625 1.62075195 -23.171875 1.55664062 C-24.18765625 1.51732422 -25.2034375 1.47800781 -26.25 1.4375 C-27.28125 1.39431641 -28.3125 1.35113281 -29.375 1.30664062 C-31.9165387 1.20074318 -34.45817196 1.09866557 -37 1 C-37 0.67 -37 0.34 -37 0 C-32.5212557 -0.1986449 -28.04200507 -0.38189278 -23.5625 -0.5625 C-22.30244141 -0.61857422 -21.04238281 -0.67464844 -19.74414062 -0.73242188 C-13.02317412 -0.99564511 -6.65846177 -0.97812006 0 0 Z " fill="#6B331E" transform="translate(707,605)" />
        <path d="M0 0 C2.5 1.3125 2.5 1.3125 5 3 C5 3.99 5 4.98 5 6 C5.5775 6.268125 6.155 6.53625 6.75 6.8125 C9.0325868 8.01719859 10.9737942 9.40798115 13 11 C12.21625 10.979375 11.4325 10.95875 10.625 10.9375 C8.01885039 10.81315937 8.01885039 10.81315937 6 12 C3.36 8.7 0.72 5.4 -2 2 C-1.34 1.34 -0.68 0.68 0 0 Z " fill="#65250A" transform="translate(762,538)" />
        <path d="M0 0 C0.99 0.33 1.98 0.66 3 1 C1.53967505 6.31027254 -0.98320986 10.46330032 -4 15 C-5.14453125 13.32421875 -5.14453125 13.32421875 -6 11 C-5.13671875 8.45703125 -5.13671875 8.45703125 -3.6875 5.8125 C-3.21699219 4.93207031 -2.74648438 4.05164063 -2.26171875 3.14453125 C-1 1 -1 1 0 0 Z " fill="#AA6331" transform="translate(639,494)" />
        <path d="M0 0 C0.33 0.99 0.66 1.98 1 3 C-2.33333333 6.33333333 -5.66666667 9.66666667 -9 13 C-9.99 12.34 -10.98 11.68 -12 11 C-10.56974806 9.34786411 -9.13054455 7.70347411 -7.6875 6.0625 C-6.88699219 5.14597656 -6.08648438 4.22945313 -5.26171875 3.28515625 C-3 1 -3 1 0 0 Z " fill="#562B1B" transform="translate(770,429)" />
        <path d="M0 0 C1.32 0 2.64 0 4 0 C2.53324575 3.8220231 0.83418477 7.46580139 -1 11.125 C-1.515625 12.15882813 -2.03125 13.19265625 -2.5625 14.2578125 C-4 17 -4 17 -6 20 C-6.33715892 14.4860469 -5.44112982 10.99561651 -3 6.0625 C-2.443125 4.91910156 -1.88625 3.77570313 -1.3125 2.59765625 C-0.6628125 1.31181641 -0.6628125 1.31181641 0 0 Z " fill="#B76E3C" transform="translate(633,492)" />
        <path d="M0 0 C0.97582031 0.00902344 1.95164062 0.01804687 2.95703125 0.02734375 C4.06111328 0.04474609 4.06111328 0.04474609 5.1875 0.0625 C5.1875 0.3925 5.1875 0.7225 5.1875 1.0625 C0.7325 1.5575 0.7325 1.5575 -3.8125 2.0625 C-2.8225 2.7225 -1.8325 3.3825 -0.8125 4.0625 C-8.09821429 7.49107143 -8.09821429 7.49107143 -12.8125 7.0625 C-12.8125 6.4025 -12.8125 5.7425 -12.8125 5.0625 C-11.4925 4.4025 -10.1725 3.7425 -8.8125 3.0625 C-9.4725 2.4025 -10.1325 1.7425 -10.8125 1.0625 C-7.13862505 0.20951624 -3.7677607 -0.04539471 0 0 Z " fill="#743A21" transform="translate(692.8125,411.9375)" />
        <path d="M0 0 C0.66 0 1.32 0 2 0 C0.57799908 5.3120724 -1.89346446 9.03913019 -5.125 13.375 C-5.59292969 14.01566406 -6.06085937 14.65632812 -6.54296875 15.31640625 C-7.68843557 16.88265681 -8.84327314 18.44204685 -10 20 C-10.66 19.34 -11.32 18.68 -12 18 C-8.83814086 13.16235552 -5.61176445 8.51470557 -2 4 C-1.29114106 2.68861096 -0.60543548 1.36222983 0 0 Z " fill="#90502D" transform="translate(765,550)" />
        <path d="M0 0 C-0.38133594 2.43833751 -0.69052765 3.70510643 -2.50292969 5.43212891 C-3.45280762 6.07287354 -3.45280762 6.07287354 -4.421875 6.7265625 C-5.11796875 7.2009375 -5.8140625 7.6753125 -6.53125 8.1640625 C-7.2634375 8.64617188 -7.995625 9.12828125 -8.75 9.625 C-9.46671875 10.11484375 -10.1834375 10.6046875 -10.921875 11.109375 C-14.50106009 13.51742967 -17.87769047 15.62048697 -22 17 C-18.02276562 12.61132758 -13.46417745 9.35701749 -8.62109375 5.96484375 C-5.96267396 4.07340607 -5.96267396 4.07340607 -3.78515625 1.75390625 C-2 0 -2 0 0 0 Z " fill="#BD6D32" transform="translate(707,551)" />
        <path d="M0 0 C2.29013653 3.4352048 2.17842973 4.985331 2 9 C-1.67410785 10.17571451 -5.16929183 10.07366746 -9 10 C-7 7 -7 7 -3.875 6.3125 C-2.92625 6.209375 -1.9775 6.10625 -1 6 C-0.67 4.02 -0.34 2.04 0 0 Z " fill="#59210E" transform="translate(787,492)" />
        <path d="M0 0 C0.33 0 0.66 0 1 0 C1.125 6.75 1.125 6.75 0 9 C-3.3 9 -6.6 9 -10 9 C-9.01 8.34 -8.02 7.68 -7 7 C-8.32 6.34 -9.64 5.68 -11 5 C-8.03 5 -5.06 5 -2 5 C-1.67 3.68 -1.34 2.36 -1 1 C-0.67 0.67 -0.34 0.34 0 0 Z " fill="#502C20" transform="translate(789,433)" />
        <path d="M0 0 C0.66 0 1.32 0 2 0 C1.46351765 4.19499396 0.14637983 6.54248558 -2.5 9.8125 C-3.1290625 10.60269531 -3.758125 11.39289062 -4.40625 12.20703125 C-4.9321875 12.79871094 -5.458125 13.39039063 -6 14 C-6.33 14 -6.66 14 -7 14 C-7.42640253 9.55435877 -6.41064126 7.61554425 -3.625 4.1875 C-2.68527344 3.00220703 -2.68527344 3.00220703 -1.7265625 1.79296875 C-1.15679688 1.20128906 -0.58703125 0.60960937 0 0 Z " fill="#492013" transform="translate(761,561)" />
        <path d="M0 0 C1 3 1 3 0.07421875 4.8671875 C-0.38339844 5.52976562 -0.84101562 6.19234375 -1.3125 6.875 C-3.28129124 9.8391246 -4.835953 12.61368147 -6 16 C-6.66 16 -7.32 16 -8 16 C-7.62270085 9.96321355 -5.73910188 5.77579991 -2 1 C-1.34 0.67 -0.68 0.34 0 0 Z " fill="#551304" transform="translate(639,491)" />
        <path d="M0 0 C-4.23379186 2.11689593 -9.84839782 1.18493005 -14.5 1.1875 C-15.66660156 1.19974609 -16.83320312 1.21199219 -18.03515625 1.22460938 C-19.70384766 1.22750977 -19.70384766 1.22750977 -21.40625 1.23046875 C-22.43041016 1.23457764 -23.45457031 1.23868652 -24.50976562 1.24291992 C-27 1 -27 1 -29 -1 C-27.78183594 -0.98839844 -26.56367187 -0.97679687 -25.30859375 -0.96484375 C-23.68489738 -0.95545822 -22.06119933 -0.94635884 -20.4375 -0.9375 C-19.63763672 -0.92912109 -18.83777344 -0.92074219 -18.01367188 -0.91210938 C-14.26490114 -0.89680827 -10.78701325 -1.03042668 -7.0625 -1.5625 C-3.8269653 -2.02471924 -2.65653768 -1.80644562 0 0 Z " fill="#A45A30" transform="translate(696,604)" />
        <path d="M0 0 C5.69139902 1.09698167 10.74567937 2.54053077 16 5 C16 5.33 16 5.66 16 6 C14.08268082 5.88544319 12.1661325 5.75793742 10.25 5.625 C9.18265625 5.55539062 8.1153125 5.48578125 7.015625 5.4140625 C4.19793568 5.0271777 2.4169634 4.44313834 0 3 C0 2.01 0 1.02 0 0 Z " fill="#4B1C11" transform="translate(645,599)" />
        <path d="M0 0 C0.33 0.66 0.66 1.32 1 2 C1.763125 1.835 2.52625 1.67 3.3125 1.5 C8.22145849 0.83437851 13.05435114 0.92079922 18 1 C18 1.66 18 2.32 18 3 C16.43883181 3.33951619 14.87598662 3.67132544 13.3125 4 C12.00732422 4.2784375 12.00732422 4.2784375 10.67578125 4.5625 C6.15891923 5.30102342 3.89629946 5.59753297 0 3 C0 2.01 0 1.02 0 0 Z " fill="#672508" transform="translate(694,428)" />
        <path d="M0 0 C0.99 1.485 0.99 1.485 2 3 C2.66 2.67 3.32 2.34 4 2 C4.50588147 3.91512272 5.00448391 5.83216922 5.5 7.75 C5.7784375 8.81734375 6.056875 9.8846875 6.34375 10.984375 C7 14 7 14 7 18 C6.34 18 5.68 18 5 18 C4.34838988 16.12699975 3.70397805 14.2514945 3.0625 12.375 C2.52302734 10.80878906 2.52302734 10.80878906 1.97265625 9.2109375 C1.04249877 6.14029714 0.45253692 3.172522 0 0 Z " fill="#C0733D" transform="translate(617,567)" />
        <path d="M0 0 C0.33 0 0.66 0 1 0 C1.05449838 1.72880982 1.09301688 3.45812712 1.125 5.1875 C1.14820313 6.15042969 1.17140625 7.11335938 1.1953125 8.10546875 C0.9913544 11.12812778 0.26874632 13.26769985 -1 16 C-1.66 16 -2.32 16 -3 16 C-2.88487847 14.27014758 -2.75744323 12.54111249 -2.625 10.8125 C-2.55539062 9.84957031 -2.48578125 8.88664062 -2.4140625 7.89453125 C-1.99784147 4.98491062 -1.20125904 2.67109226 0 0 Z " fill="#511B03" transform="translate(752,489)" />
        <path d="M0 0 C4.875 1.875 4.875 1.875 6 3 C5.71269945 5.33944736 5.38063221 7.6739143 5 10 C-0.73529412 4.70588235 -0.73529412 4.70588235 -1 1 C-0.67 0.67 -0.34 0.34 0 0 Z " fill="#A75820" transform="translate(682,461)" />
        <path d="M0 0 C2.4375 1 2.4375 1 4 2 C2.948125 2.12375 1.89625 2.2475 0.8125 2.375 C-2.86890305 2.83476853 -2.86890305 2.83476853 -5.625 4.0625 C-8.24705404 5.09752133 -10.20703859 5.15959779 -13 5 C-8.54913853 0.40077648 -6.50272114 -0.33634765 0 0 Z " fill="#481A0D" transform="translate(782,439)" />
        <path d="M0 0 C0.99 0.33 1.98 0.66 3 1 C3 1.66 3 2.32 3 3 C4.32 3.33 5.64 3.66 7 4 C6.34 5.32 5.68 6.64 5 8 C2.13275314 7.42655063 1.1385485 7.1385485 -1 5 C-0.625 2.375 -0.625 2.375 0 0 Z " fill="#974F1D" transform="translate(688,467)" />
        <path d="M0 0 C1.1484375 1.578125 1.1484375 1.578125 2 4 C1.1015625 7.234375 1.1015625 7.234375 -0.375 10.75 C-0.85710938 11.92046875 -1.33921875 13.0909375 -1.8359375 14.296875 C-2.22007812 15.18890625 -2.60421875 16.0809375 -3 17 C-3.33 17 -3.66 17 -4 17 C-4.48736475 10.29873464 -3.07708804 5.93438408 0 0 Z " fill="#461B0F" transform="translate(614,490)" />
        <path d="M0 0 C3 3 3 3 5 6 C5 7.32 5 8.64 5 10 C3.35 10.33 1.7 10.66 0 11 C0 7.37 0 3.74 0 0 Z " fill="#733D23" transform="translate(775,471)" />
        <path d="M0 0 C1.98 0 3.96 0 6 0 C6 0.33 6 0.66 6 1 C4.02 1 2.04 1 0 1 C0 0.67 0 0.34 0 0 Z M-2 0 C0 2 0 2 0.046875 4.71484375 C-0.05109375 5.77832031 -0.1490625 6.84179688 -0.25 7.9375 C-0.33765625 8.99839844 -0.4253125 10.05929687 -0.515625 11.15234375 C-1 14 -1 14 -3 17 C-2.67 12.71 -2.34 8.42 -2 4 C-3.32 4.33 -4.64 4.66 -6 5 C-6.33 4.01 -6.66 3.02 -7 2 C-5.35 1.34 -3.7 0.68 -2 0 Z " fill="#642810" transform="translate(694,415)" />
        <path d="M0 0 C4.554787 3.80014774 8.95279259 7.65665546 13 12 C13 12.66 13 13.32 13 14 C11.68 14 10.36 14 9 14 C8.62875 13.13375 8.2575 12.2675 7.875 11.375 C6.28114247 8.50605644 5.10891475 6.95412385 2.8125 4.75 C1.884375 3.8425 0.95625 2.935 0 2 C0 1.34 0 0.68 0 0 Z " fill="#9D582F" transform="translate(732,510)" />
        <path d="M0 0 C-1.59723021 3.19446042 -4.89976488 3.83269963 -8.0625 5.125 C-8.72572266 5.40214844 -9.38894531 5.67929687 -10.07226562 5.96484375 C-11.71236443 6.64920153 -13.35587283 7.3253775 -15 8 C-15 7.01 -15 6.02 -15 5 C-14.01 5 -13.02 5 -12 5 C-11.67 4.34 -11.34 3.68 -11 3 C-7.18687075 0.74678726 -4.44421603 -0.39213671 0 0 Z " fill="#8F4D2B" transform="translate(726,593)" />
        <path d="M0 0 C0.66 0 1.32 0 2 0 C0.47987323 5.40489519 -3.27385218 8.98492628 -7 13 C-7.33 12.01 -7.66 11.02 -8 10 C-6.41796875 7.51953125 -6.41796875 7.51953125 -4.1875 4.8125 C-3.45917969 3.91144531 -2.73085938 3.01039063 -1.98046875 2.08203125 C-1.32691406 1.39496094 -0.67335938 0.70789063 0 0 Z " fill="#934E2C" transform="translate(739,547)" />
        <path d="M0 0 C0.99 0 1.98 0 3 0 C3.9375 2.625 3.9375 2.625 4 6 C1.9456142 8.38782014 -0.43042604 10.19296794 -3 12 C-3.66 11.67 -4.32 11.34 -5 11 C-4.57847656 10.52949219 -4.15695312 10.05898438 -3.72265625 9.57421875 C-2.90087891 8.64029297 -2.90087891 8.64029297 -2.0625 7.6875 C-1.51722656 7.07261719 -0.97195313 6.45773437 -0.41015625 5.82421875 C1.20081559 3.94758042 1.20081559 3.94758042 2 1 C1.34 0.67 0.68 0.34 0 0 Z " fill="#8E4C29" transform="translate(742,546)" />
        <path d="M0 0 C-0.59283621 3.39192363 -1.76743189 5.2107757 -4.0625 7.75 C-4.61035156 8.36359375 -5.15820312 8.9771875 -5.72265625 9.609375 C-6.14417969 10.06828125 -6.56570313 10.5271875 -7 11 C-7.66 10.67 -8.32 10.34 -9 10 C-3.52830189 0 -3.52830189 0 0 0 Z " fill="#4F1003" transform="translate(744,547)" />
        <path d="M0 0 C1.1875 1.5625 1.1875 1.5625 2 4 C0.69707075 7.71334836 -0.81826034 10.72739052 -3 14 C-3.02708567 12.39592672 -3.04643483 10.7917215 -3.0625 9.1875 C-3.07410156 8.29417969 -3.08570313 7.40085937 -3.09765625 6.48046875 C-3 4 -3 4 -2 1 C-1.34 0.67 -0.68 0.34 0 0 Z " fill="#B76D39" transform="translate(615,497)" />
        <path d="M0 0 C3.88397689 1.55002747 6.02979619 4.00476621 8.75 7.125 C9.94882812 8.49011719 9.94882812 8.49011719 11.171875 9.8828125 C12.07679688 10.93082031 12.07679688 10.93082031 13 12 C12.67 12.66 12.34 13.32 12 14 C10.68113228 12.90344712 9.37009943 11.79746577 8.0625 10.6875 C7.33160156 10.07261719 6.60070312 9.45773437 5.84765625 8.82421875 C4 7 4 7 3 4 C2.01 3.34 1.02 2.68 0 2 C0 1.34 0 0.68 0 0 Z " fill="#9C542F" transform="translate(716,493)" />
        <path d="M0 0 C0 0.66 0 1.32 0 2 C-4.95 3.485 -4.95 3.485 -10 5 C-10 3.68 -10 2.36 -10 1 C-6.42181037 -1.33958553 -4.07775191 -0.9267618 0 0 Z " fill="#4E261A" transform="translate(782,425)" />
        <path d="M0 0 C-0.99 0.495 -0.99 0.495 -2 1 C-1.67 1.66 -1.34 2.32 -1 3 C-2.41377782 3.36552803 -3.83120576 3.71695495 -5.25 4.0625 C-6.03890625 4.25972656 -6.8278125 4.45695313 -7.640625 4.66015625 C-10.10394822 5.01497267 -11.65604132 4.76877544 -14 4 C-13.01 3.67 -12.02 3.34 -11 3 C-11.33 2.34 -11.66 1.68 -12 1 C-10.56496445 0.63597631 -9.12683494 0.28413409 -7.6875 -0.0625 C-6.88699219 -0.25972656 -6.08648438 -0.45695313 -5.26171875 -0.66015625 C-3 -1 -3 -1 0 0 Z " fill="#6C270C" transform="translate(690,587)" />
        <path d="M0 0 C1.2065625 0.0309375 1.2065625 0.0309375 2.4375 0.0625 C1.81995741 1.37852523 1.19321258 2.69023556 0.5625 4 C0.21445312 4.73089844 -0.13359375 5.46179688 -0.4921875 6.21484375 C-1.5625 8.0625 -1.5625 8.0625 -3.5625 9.0625 C-3.66015625 2.91015625 -3.66015625 2.91015625 -3.5625 1.0625 C-2.5625 0.0625 -2.5625 0.0625 0 0 Z " fill="#864825" transform="translate(774.5625,503.9375)" />
        <path d="M0 0 C5.75 0.875 5.75 0.875 8 2 C8 2.66 8 3.32 8 4 C5.69 3.67 3.38 3.34 1 3 C1 4.32 1 5.64 1 7 C0.34 7 -0.32 7 -1 7 C-0.67 4.69 -0.34 2.38 0 0 Z " fill="#401606" transform="translate(713,416)" />
        <path d="M0 0 C-3.58375776 3.58375776 -9.13500141 3.92387761 -14.0625 4.125 C-14.701875 4.08375 -15.34125 4.0425 -16 4 C-15 2 -15 2 -13.14453125 1.3671875 C-8.68502511 0.4259852 -4.58835504 -0.23530026 0 0 Z " fill="#501902" transform="translate(771,484)" />
        <path d="M0 0 C3 1 3 1 4.75 3.375 C6 6 6 6 5 9 C4.01 9.495 4.01 9.495 3 10 C2.30289269 8.71349294 1.61757124 7.42059335 0.9375 6.125 C0.36322266 5.04605469 0.36322266 5.04605469 -0.22265625 3.9453125 C-0.47917969 3.30335938 -0.73570312 2.66140625 -1 2 C-0.67 1.34 -0.34 0.68 0 0 Z " fill="#441D12" transform="translate(775,466)" />
        <path d="M0 0 C1.98 0.99 1.98 0.99 4 2 C3.67 2.66 3.34 3.32 3 4 C2.34 4 1.68 4 1 4 C1 7.3 1 10.6 1 14 C3.64 14 6.28 14 9 14 C9 14.33 9 14.66 9 15 C6.03 15 3.06 15 0 15 C0 10.05 0 5.1 0 0 Z " fill="#7A3D1D" transform="translate(736,431)" />
        <path d="M0 0 C0.33 0.99 0.66 1.98 1 3 C-2.21451269 4.60725635 -5.43612536 4.05748185 -9 4 C-9.33 3.34 -9.66 2.68 -10 2 C-3.375 0 -3.375 0 0 0 Z " fill="#5A2713" transform="translate(711,601)" />
        <path d="M0 0 C3 4 3 4 2.75 7.3125 C2.5025 8.529375 2.255 9.74625 2 11 C1.814375 12.299375 1.62875 13.59875 1.4375 14.9375 C1.293125 15.948125 1.14875 16.95875 1 18 C0.67 18 0.34 18 0 18 C0 12.06 0 6.12 0 0 Z " fill="#E0904A" transform="translate(626,539)" />
        <path d="M0 0 C1.99788438 0.34578768 3.99759451 0.68143549 6 1 C5.67 1.66 5.34 2.32 5 3 C0.38 3 -4.24 3 -9 3 C-9.33 2.01 -9.66 1.02 -10 0 C-6.26677379 -0.76361445 -3.63529037 -1.13602824 0 0 Z " fill="#6D2B0B" transform="translate(746,488)" />
        <path d="M0 0 C0.99 0.495 0.99 0.495 2 1 C2.96070434 3.88211302 3.10581883 5.69850044 3.0625 8.6875 C3.05347656 9.49574219 3.04445313 10.30398438 3.03515625 11.13671875 C3.02355469 11.75160156 3.01195312 12.36648438 3 13 C2.67 12.01 2.34 11.02 2 10 C1.34 10 0.68 10 0 10 C0 6.7 0 3.4 0 0 Z " fill="#541B0B" transform="translate(608,544)" />
        <path d="M0 0 C0.33 0 0.66 0 1 0 C0.48914188 6.43681228 -0.72942897 11.95942424 -3 18 C-3.33 18 -3.66 18 -4 18 C-3.88557539 16.39504433 -3.75805306 14.79101881 -3.625 13.1875 C-3.55539062 12.29417969 -3.48578125 11.40085937 -3.4140625 10.48046875 C-3 8 -3 8 -1 5 C-0.61500109 3.34450469 -0.27206865 1.6777567 0 0 Z " fill="#C0723E" transform="translate(626,509)" />
        <path d="M0 0 C3.465 1.485 3.465 1.485 7 3 C7 3.99 7 4.98 7 6 C4.03 5.01 1.06 4.02 -2 3 C-1.34 2.01 -0.68 1.02 0 0 Z " fill="#612F23" transform="translate(638,595)" />
        <path d="M0 0 C4.41309542 3.15221101 7.00793014 6.55463907 10 11 C9.01 11.33 8.02 11.66 7 12 C7 11.01 7 10.02 7 9 C6.34 9 5.68 9 5 9 C2 5.53846154 2 5.53846154 2 3 C1.01 2.67 0.02 2.34 -1 2 C-0.67 1.34 -0.34 0.68 0 0 Z " fill="#904D29" transform="translate(751,530)" />
        <path d="M0 0 C0.33 0 0.66 0 1 0 C0.88512252 1.58409994 0.75765492 3.16728963 0.625 4.75 C0.52058594 6.07257813 0.52058594 6.07257813 0.4140625 7.421875 C0.00149945 9.99066382 -0.71160957 11.75841015 -2 14 C-2.33 14 -2.66 14 -3 14 C-3 11.03 -3 8.06 -3 5 C-2.34 4.67 -1.68 4.34 -1 4 C-0.34786708 1.97536745 -0.34786708 1.97536745 0 0 Z " fill="#5C2106" transform="translate(713,451)" />
        <path d="M0 0 C0.25 2.3125 0.25 2.3125 0 5 C-2 6.8125 -2 6.8125 -4 8 C-4.99 7.34 -5.98 6.68 -7 6 C-6.02388578 4.99702025 -5.04402202 3.99768827 -4.0625 3 C-3.51722656 2.443125 -2.97195313 1.88625 -2.41015625 1.3125 C-1 0 -1 0 0 0 Z " fill="#5D2814" transform="translate(754,571)" />
        <path d="M0 0 C1.15224028 0.92961422 2.29659176 1.8690125 3.4375 2.8125 C4.07558594 3.33457031 4.71367188 3.85664062 5.37109375 4.39453125 C7 6 7 6 8 9 C6.35 9.33 4.7 9.66 3 10 C2.87625 9.278125 2.7525 8.55625 2.625 7.8125 C2.0095069 5.04278106 1.11555626 2.6029646 0 0 Z " fill="#A65B2E" transform="translate(760,541)" />
        <path d="M0 0 C-0.33 0.99 -0.66 1.98 -1 3 C-8.75 2.25 -8.75 2.25 -11 0 C-7.18243176 -1.37432457 -3.92744671 -0.67975039 0 0 Z " fill="#472013" transform="translate(714,415)" />
        <path d="M0 0 C3 1 3 1 4.1875 3.375 C5 6 5 6 5 9 C2 8 2 8 0.8125 6.1875 C0 4 0 4 0 0 Z " fill="#43150B" transform="translate(612,563)" />
        <path d="M0 0 C2.9375 1.1875 2.9375 1.1875 6 3 C6.875 5.6875 6.875 5.6875 7 8 C4.13792848 6.71700242 1.9754912 5.469364 0 3 C0 2.01 0 1.02 0 0 Z " fill="#4E1906" transform="translate(709,482)" />
        <path d="M0 0 C0 3 0 3 -1.625 4.6875 C-4.58198664 6.32162419 -6.67179946 6.22692276 -10 6 C-6.87567603 3.47650757 -3.61939504 1.72743854 0 0 Z " fill="#914E29" transform="translate(712,579)" />
        <path d="M0 0 C3.67420866 0.30618405 4.78135513 0.75771784 7.3125 3.5625 C8.1478125 4.7690625 8.1478125 4.7690625 9 6 C6.03 5.01 3.06 4.02 0 3 C0 2.01 0 1.02 0 0 Z " fill="#401A0F" transform="translate(738,429)" />
        <path d="M0 0 C0.33 0.66 0.66 1.32 1 2 C-1.31 2.66 -3.62 3.32 -6 4 C-6 3.34 -6 2.68 -6 2 C-6.99 1.67 -7.98 1.34 -9 1 C-6.04335481 -0.4783226 -3.25770263 -0.06032783 0 0 Z " fill="#4E2719" transform="translate(684,414)" />
        <path d="M0 0 C0.99 0.66 1.98 1.32 3 2 C5.50896686 2.45601261 5.50896686 2.45601261 8.1875 2.625 C9.08855469 2.69976563 9.98960937 2.77453125 10.91796875 2.8515625 C11.60503906 2.90054688 12.29210937 2.94953125 13 3 C13 3.33 13 3.66 13 4 C10.87561661 4.08078641 8.7503677 4.13909141 6.625 4.1875 C5.44164062 4.22230469 4.25828125 4.25710938 3.0390625 4.29296875 C1.53472656 4.14794922 1.53472656 4.14794922 0 4 C-0.66 3.01 -1.32 2.02 -2 1 C-1.34 0.67 -0.68 0.34 0 0 Z " fill="#37150A" transform="translate(622,592)" />
        <path d="M0 0 C0.66 0.66 1.32 1.32 2 2 C-0.97 4.97 -3.94 7.94 -7 11 C-7.66 10.67 -8.32 10.34 -9 10 C-8.27683594 9.29423828 -8.27683594 9.29423828 -7.5390625 8.57421875 C-6.90742187 7.95160156 -6.27578125 7.32898438 -5.625 6.6875 C-4.68527344 5.76517578 -4.68527344 5.76517578 -3.7265625 4.82421875 C-1.81913393 2.91187472 -1.81913393 2.91187472 0 0 Z " fill="#E9DCD7" transform="translate(756,572)" />
        <path d="M0 0 C0.66 0 1.32 0 2 0 C0.84414715 3.91211733 -0.35534962 6.8745041 -3 10 C-3.99 9.67 -4.98 9.34 -6 9 C-5.071875 7.88625 -5.071875 7.88625 -4.125 6.75 C-2.39562719 4.51198812 -1.13893339 2.56260013 0 0 Z " fill="#9A5530" transform="translate(765,550)" />
        <path d="M0 0 C0.97582031 0.00902344 1.95164062 0.01804687 2.95703125 0.02734375 C3.69308594 0.03894531 4.42914062 0.05054688 5.1875 0.0625 C5.1875 0.3925 5.1875 0.7225 5.1875 1.0625 C4.29998047 1.15337891 4.29998047 1.15337891 3.39453125 1.24609375 C-1.71138532 1.78574221 -1.71138532 1.78574221 -6.75 2.75 C-7.430625 2.853125 -8.11125 2.95625 -8.8125 3.0625 C-9.4725 2.4025 -10.1325 1.7425 -10.8125 1.0625 C-7.13862505 0.20951624 -3.7677607 -0.04539471 0 0 Z " fill="#613E33" transform="translate(692.8125,411.9375)" />
        <path d="M0 0 C0.66 0 1.32 0 2 0 C1.67 1.65 1.34 3.3 1 5 C0.01 5 -0.98 5 -2 5 C-2 5.66 -2 6.32 -2 7 C-2.66 7 -3.32 7 -4 7 C-2.92598892 4.08482708 -2.22189824 2.22189824 0 0 Z " fill="#43180B" transform="translate(761,561)" />
        <path d="M0 0 C0.99 0 1.98 0 3 0 C4.1577506 3.47325181 4.06866652 6.36067448 4 10 C1.04816899 7.04816899 0.91336012 4.04488053 0 0 Z " fill="#AC6638" transform="translate(613,559)" />
        <path d="M0 0 C3.76607955 1.25535985 4.26441793 2.52883585 6 6 C6 6.99 6 7.98 6 9 C5.34 9 4.68 9 4 9 C1.98217268 6.09432866 0.64505596 3.48330216 0 0 Z " fill="#4E2C22" transform="translate(779,473)" />
        <path d="M0 0 C3.39914975 1.13304992 4.05254451 2.12518475 6 5 C5 7 5 7 3 8 C2.67 7.01 2.34 6.02 2 5 C1.34 4.67 0.68 4.34 0 4 C0 2.68 0 1.36 0 0 Z " fill="#532F25" transform="translate(771,460)" />
        <path d="M0 0 C-4.30769231 3.07692308 -4.30769231 3.07692308 -7.8125 2.6875 C-8.534375 2.460625 -9.25625 2.23375 -10 2 C-10 1.34 -10 0.68 -10 0 C-3.375 -1.125 -3.375 -1.125 0 0 Z " fill="#894724" transform="translate(707,454)" />
        <path d="M0 0 C0 0.99 0 1.98 0 3 C-0.99 3.66 -1.98 4.32 -3 5 C-3.73343428 8.06556598 -3.73343428 8.06556598 -4 11 C-4.33 11 -4.66 11 -5 11 C-5.36717663 3.5340751 -5.36717663 3.5340751 -3.625 1 C-2 0 -2 0 0 0 Z " fill="#73391C" transform="translate(698,433)" />
        <path d="M0 0 C-0.66 1.32 -1.32 2.64 -2 4 C-4.31 3.67 -6.62 3.34 -9 3 C-6.01800145 0.01800145 -4.21244839 0 0 0 Z " fill="#914F26" transform="translate(701,586)" />
        <path d="M0 0 C0.7425 0.0825 1.485 0.165 2.25 0.25 C0.27579865 2.77259061 -0.71745642 3.2429808 -3.9375 3.9375 C-5.3296875 4.0921875 -5.3296875 4.0921875 -6.75 4.25 C-3.42692308 0.31153846 -3.42692308 0.31153846 0 0 Z " fill="#4D1001" transform="translate(704.75,580.75)" />
        <path d="M0 0 C1.7074998 1.28062485 3.37373596 2.61767557 5 4 C5 4.66 5 5.32 5 6 C4.01 6.33 3.02 6.66 2 7 C0.68 5.02 -0.64 3.04 -2 1 C-1.34 0.67 -0.68 0.34 0 0 Z " fill="#622308" transform="translate(700,471)" />
        <path d="M0 0 C-0.33 1.32 -0.66 2.64 -1 4 C-3.31 4 -5.62 4 -8 4 C-6.4425489 0.88509781 -3.40085499 0 0 0 Z " fill="#4F271B" transform="translate(779,547)" />
        <path d="M0 0 C0.66 0.99 1.32 1.98 2 3 C2.33 2.01 2.66 1.02 3 0 C3 1.32 3 2.64 3 4 C0.36 4.33 -2.28 4.66 -5 5 C-3.35 3.35 -1.7 1.7 0 0 Z " fill="#6F3919" transform="translate(730,464)" />
        <path d="M0 0 C1.98 0 3.96 0 6 0 C6 0.66 6 1.32 6 2 C3.36 2.99 0.72 3.98 -2 5 C-2 3 -2 3 0 1 C0 0.67 0 0.34 0 0 Z " fill="#462217" transform="translate(722,595)" />
        <path d="M0 0 C3.91402949 1.26941497 5.79072873 2.51167694 8 6 C2.25 4.125 2.25 4.125 0 3 C0 2.01 0 1.02 0 0 Z " fill="#9A512A" transform="translate(639,593)" />
        <path d="M0 0 C0.99 0 1.98 0 3 0 C2.34 1.65 1.68 3.3 1 5 C0.01 5 -0.98 5 -2 5 C-1.125 1.125 -1.125 1.125 0 0 Z " fill="#3A1409" transform="translate(786,538)" />
        <path d="M0 0 C0.33 0.99 0.66 1.98 1 3 C-2.465 4.485 -2.465 4.485 -6 6 C-4.95125002 3.37812506 -4.35068687 2.20628639 -1.875 0.75 C-1.25625 0.5025 -0.6375 0.255 0 0 Z " fill="#3B170D" transform="translate(770,429)" />
        <path d="M0 0 C1.9375 0.8125 1.9375 0.8125 4 2 C4.33 2.99 4.66 3.98 5 5 C2.36 4.34 -0.28 3.68 -3 3 C-2.01 2.67 -1.02 2.34 0 2 C0 1.34 0 0.68 0 0 Z " fill="#56220E" transform="translate(721,418)" />
        <path d="M0 0 C-2.35953094 2.35953094 -3.77895617 2.49141413 -7 3 C-7.33 2.01 -7.66 1.02 -8 0 C-5.13822943 -1.43088528 -3.06624227 -0.59991697 0 0 Z " fill="#62321E" transform="translate(682,419)" />
      </g>
    </g>
  </g>
  
  </svg>