<svg width="35" height="35" viewBox="0 0 35 35" fill="none" xmlns="http://www.w3.org/2000/svg">
<rect width="35" height="35" rx="10" fill="#584738"/>
<path fill-rule="evenodd" clip-rule="evenodd" d="M10.4247 19.3923L9.99957 19.3435L9.57443 19.0996L9.31463 18.7824L9.12568 18.197V17.4652L9.31463 16.8309L9.83423 15.9528L10.2121 15.4649V15.0746L9.95233 14.8063L9.71614 14.7087L8.44074 14.6111L7.54323 14.2208L7.23619 13.9525L7.04724 13.6598L7 12.9767L7.51961 11.8546L8.08646 11.074L8.62968 10.513L9.62167 9.92753L10.3775 9.68359H10.6136L11.1096 8.82981L11.6056 8.26876H12.0308L12.4323 8.73224L12.7157 9.51283L12.7629 10.2934L12.9047 10.6349L14.2037 11.9766L15.2901 12.9036L15.4318 12.9523L16.1876 12.806H16.66L16.7781 12.684L16.6364 12.1474L16.2585 11.4155L15.4791 10.5618L15.1248 10.2934L15.0303 10.0983V9.80556L15.2193 9.41526L15.5263 9.09814L15.9042 8.95178L16.3766 9.04935L16.9671 9.75677L17.5339 11.0252L17.7229 11.6595L17.8646 12.684L17.9827 12.806L18.7857 12.8548L18.9038 12.7328L18.4787 11.8058L18.148 10.4886V8.97617L18.3842 8.04921L18.7621 7.26861L19.0455 6.82953L20.0139 5.87817L20.8641 5.3903L21.9978 5.04879L23.6039 5L24.1707 5.09757L24.9738 5.34151L25.9185 5.82939L26.5326 6.31726L27.312 7.21983L27.8316 8.39072L27.9733 9.12253V9.90313L27.7844 10.7813L27.2648 11.7571L26.9105 12.0742L26.6743 12.0254L26.509 11.7571L26.3673 11.1228L26.1311 10.6837L25.6351 10.269L25.0682 10.0739L24.3597 10.1227L23.6984 10.4642L23.3441 10.9277L23.1551 11.5131L23.2024 12.1961L23.4386 12.928L24.9502 15.3673L25.2336 16.0016L25.4225 16.6846L25.517 17.4164L25.4698 18.1482L25.2808 18.7337L24.9265 19.1483L24.5014 19.3435H23.9818L22.1868 18.7093L20.1083 18.2214L18.5495 18.0262L16.849 17.9774L15.4791 18.075L13.7785 18.3677L11.9363 18.8556L10.4247 19.3923ZM17.4158 31.1988H17.0852L16.7073 31.0525L15.8097 30.1743L14.5343 29.5888L13.3062 28.857L12.4559 28.174L11.6293 27.1739L10.9207 25.759L10.4483 23.9051L10.3538 23.2221L10.3066 21.7585L10.3538 20.8315L10.4483 20.1973L10.5192 20.1241L12.9283 19.2947L14.7705 18.9044L16.0459 18.758H18.5967L21.0531 19.1483L22.7064 19.6362L24.0054 20.1485L24.0999 20.8315V22.783L24.0054 23.7588L23.722 25.1248L23.3913 26.1005L23.0607 26.7836L22.5411 27.5642L21.7144 28.4667L20.6752 29.1985L18.7857 30.1255L18.3133 30.467L17.7937 31.0525L17.4158 31.1988ZM9.90509 12.2693L9.57443 12.2205L9.36186 11.9522V11.7083L9.45634 11.4643L9.71614 11.2936H9.95233L10.1413 11.3911L10.3066 11.6595V11.8546L10.2121 12.0498L10.0468 12.2205L9.90509 12.2693ZM17.4158 29.0034H17.0852L17.0143 28.9302V27.2227L17.0615 27.1739V26.9299L16.9907 26.7104H14.2509L14.1801 26.7836L14.2273 26.8811L14.1801 26.9299L14.2273 27.8569L14.1564 28.0276L13.8022 27.7593V26.7348L12.7866 26.7104L12.5268 26.2957L13.7313 26.3201L13.8022 26.2469V23.6124L11.6056 23.588L11.582 23.1733L13.7313 23.1489L13.8022 23.0757V20.3436L13.873 20.2705L14.1801 20.2461V21.173L14.2273 21.2218L14.1801 23.0269L14.2509 23.1489H16.9907L17.0615 22.9782V22.4903L17.0143 22.4415L17.0615 19.9533L17.4158 19.9289L17.4394 23.0757L17.5103 23.1489H20.2028L20.2737 23.0757L20.2973 20.2217L20.6516 20.3436V23.0757L20.7224 23.1489L22.8717 23.1733L22.8481 23.588H20.7224L20.6516 23.6612V26.1981L20.7224 26.2713L20.9586 26.3201L21.6199 26.2713L21.8797 26.3445L21.6672 26.7104H20.7224L20.6516 26.7836V27.8081L20.2737 28.0033V26.7836L20.2028 26.7104H17.5103L17.4394 26.7836L17.4158 29.0034ZM16.9198 26.2957L17.0143 26.2469L17.0615 26.0518V25.759L17.0143 25.7102V24.3442L17.0615 24.2954L17.0143 24.1491L17.0615 23.9051L16.9907 23.588L14.2273 23.6124L14.1801 23.8563V24.1003L14.2273 24.1491L14.1801 26.1981L14.2509 26.2713H14.4871L14.5343 26.3201H15.054L15.1012 26.2713L15.1957 26.3201L16.9198 26.2957ZM18.1008 26.2957L20.2737 26.2469V23.6612L20.2028 23.588H17.5103L17.4394 23.6612V26.2469L17.7937 26.2713L17.8409 26.3201L18.1008 26.2957Z" fill="#F1EADA"/>
</svg>
